# MagicaVoxel @ Ephtracy

# group
o 

# material
mtllib Node_Side.mtl
usemtl palette

# normals
vn -1 0 0
vn 1 0 0
vn 0 0 1
vn 0 0 -1
vn 0 -1 0
vn 0 1 0

# texcoords
vt 0.0214844 0.5
vt 0.849609 0.5
vt 0.857422 0.5
vt 0.958984 0.5
vt 0.994141 0.5

# verts
v -0.8 -0.8 1
v -0.8 -0.8 -1
v -0.8 -0.7 0.9
v -0.8 -0.7 -0.9
v -0.8 -0.5 0.7
v -0.8 -0.5 -0.7
v -0.8 0.9 0.7
v -0.8 0.9 -0.7
v -0.8 1.1 0.9
v -0.8 1.1 -0.9
v -0.8 1.2 1
v -0.8 1.2 -1
v -0.4 -0.8 1
v -0.4 -0.8 -1
v -0.4 -0.4 0.6
v -0.4 -0.4 -0.6
v -0.4 0.8 0.6
v -0.4 0.8 -0.6
v -0.4 1.2 1
v -0.4 1.2 -1
v 0 -0.4 0.6
v 0 -0.4 -0.6
v 0 0 0.2
v 0 0 -0.2
v 0 0.4 0.2
v 0 0.4 -0.2
v 0 0.8 0.6
v 0 0.8 -0.6
v 0.7 0.1 0.1
v 0.7 0.1 0
v 0.7 0.1 -0.1
v 0.7 0.2 0.1
v 0.7 0.2 0
v 0.7 0.2 -0.1
v 0.7 0.3 0.1
v 0.7 0.3 0
v 0.7 0.3 -0.1
v 0.8 0 0.2
v 0.8 0 -0.2
v 0.8 0.1 0.1
v 0.8 0.1 -0.1
v 0.8 0.3 0.1
v 0.8 0.3 -0.1
v 0.8 0.4 0.2
v 0.8 0.4 -0.2
v -0.8 -0.8 1
v -0.8 1.2 1
v -0.4 -0.8 1
v -0.4 1.2 1
v -0.4 -0.4 0.6
v -0.4 0.8 0.6
v -0.3 -0.4 0.6
v -0.3 0.8 0.6
v -0.1 -0.4 0.6
v -0.1 0.8 0.6
v 0 -0.4 0.6
v 0 0.8 0.6
v 0 0 0.2
v 0 0.4 0.2
v 0.8 0 0.2
v 0.8 0.4 0.2
v 0.7 0.1 -0.1
v 0.7 0.2 -0.1
v 0.7 0.3 -0.1
v 0.8 0.1 -0.1
v 0.8 0.3 -0.1
v 0.7 0.1 0.1
v 0.7 0.2 0.1
v 0.7 0.3 0.1
v 0.8 0.1 0.1
v 0.8 0.3 0.1
v 0 0 -0.2
v 0 0.4 -0.2
v 0.8 0 -0.2
v 0.8 0.4 -0.2
v -0.4 -0.4 -0.6
v -0.4 0.8 -0.6
v -0.3 -0.4 -0.6
v -0.3 0.8 -0.6
v -0.1 -0.4 -0.6
v -0.1 0.8 -0.6
v 0 -0.4 -0.6
v 0 0.8 -0.6
v -0.8 -0.8 -1
v -0.8 1.2 -1
v -0.4 -0.8 -1
v -0.4 1.2 -1
v -0.8 -0.8 1
v -0.4 -0.8 1
v -0.8 -0.8 -1
v -0.4 -0.8 -1
v -0.4 -0.4 0.6
v -0.3 -0.4 0.6
v -0.1 -0.4 0.6
v 0 -0.4 0.6
v -0.4 -0.4 -0.6
v -0.3 -0.4 -0.6
v -0.1 -0.4 -0.6
v 0 -0.4 -0.6
v 0 0 0.2
v 0.8 0 0.2
v 0 0 -0.2
v 0.8 0 -0.2
v 0.7 0.3 0.1
v 0.8 0.3 0.1
v 0.7 0.3 0
v 0.7 0.3 -0.1
v 0.8 0.3 -0.1
v 0.7 0.1 0.1
v 0.8 0.1 0.1
v 0.7 0.1 0
v 0.7 0.1 -0.1
v 0.8 0.1 -0.1
v 0 0.4 0.2
v 0.8 0.4 0.2
v 0 0.4 -0.2
v 0.8 0.4 -0.2
v -0.4 0.8 0.6
v -0.3 0.8 0.6
v -0.1 0.8 0.6
v 0 0.8 0.6
v -0.4 0.8 -0.6
v -0.3 0.8 -0.6
v -0.1 0.8 -0.6
v 0 0.8 -0.6
v -0.8 1.2 1
v -0.4 1.2 1
v -0.8 1.2 -1
v -0.4 1.2 -1

# faces
f 3/2/1 2/2/1 1/2/1
f 4/2/1 2/2/1 3/2/1
f 5/3/1 4/3/1 3/3/1
f 6/3/1 4/3/1 5/3/1
f 7/3/1 5/3/1 3/3/1
f 7/2/1 6/2/1 5/2/1
f 8/3/1 4/3/1 6/3/1
f 8/2/1 6/2/1 7/2/1
f 9/2/1 3/2/1 1/2/1
f 9/3/1 7/3/1 3/3/1
f 9/3/1 8/3/1 7/3/1
f 10/3/1 4/3/1 8/3/1
f 10/3/1 8/3/1 9/3/1
f 10/2/1 2/2/1 4/2/1
f 11/2/1 9/2/1 1/2/1
f 11/2/1 10/2/1 9/2/1
f 12/2/1 2/2/1 10/2/1
f 12/2/1 10/2/1 11/2/1
f 13/2/2 14/2/2 15/2/2
f 15/2/2 14/2/2 16/2/2
f 13/2/2 15/2/2 17/2/2
f 16/2/2 14/2/2 18/2/2
f 13/2/2 17/2/2 19/2/2
f 17/2/2 18/2/2 19/2/2
f 18/2/2 14/2/2 20/2/2
f 19/2/2 18/2/2 20/2/2
f 21/3/2 22/3/2 23/3/2
f 23/3/2 22/3/2 24/3/2
f 21/3/2 23/3/2 25/3/2
f 24/3/2 22/3/2 26/3/2
f 21/3/2 25/3/2 27/3/2
f 25/3/2 26/3/2 27/3/2
f 26/3/2 22/3/2 28/3/2
f 27/3/2 26/3/2 28/3/2
f 29/5/2 30/5/2 32/5/2
f 30/1/2 31/1/2 33/1/2
f 32/5/2 30/5/2 33/5/2
f 33/1/2 31/1/2 34/1/2
f 32/1/2 33/1/2 35/1/2
f 33/5/2 34/5/2 36/5/2
f 35/1/2 33/1/2 36/1/2
f 36/5/2 34/5/2 37/5/2
f 38/4/2 39/4/2 40/4/2
f 40/4/2 39/4/2 41/4/2
f 38/4/2 40/4/2 42/4/2
f 41/4/2 39/4/2 43/4/2
f 38/4/2 42/4/2 44/4/2
f 42/4/2 43/4/2 44/4/2
f 43/4/2 39/4/2 45/4/2
f 44/4/2 43/4/2 45/4/2
f 48/2/3 47/2/3 46/2/3
f 49/2/3 47/2/3 48/2/3
f 52/3/3 51/3/3 50/3/3
f 53/3/3 51/3/3 52/3/3
f 54/5/3 53/5/3 52/5/3
f 55/5/3 53/5/3 54/5/3
f 56/3/3 55/3/3 54/3/3
f 57/3/3 55/3/3 56/3/3
f 60/4/3 59/4/3 58/4/3
f 61/4/3 59/4/3 60/4/3
f 65/4/3 63/4/3 62/4/3
f 65/4/3 64/4/3 63/4/3
f 66/4/3 64/4/3 65/4/3
f 67/4/4 68/4/4 70/4/4
f 68/4/4 69/4/4 70/4/4
f 70/4/4 69/4/4 71/4/4
f 72/4/4 73/4/4 74/4/4
f 74/4/4 73/4/4 75/4/4
f 76/3/4 77/3/4 78/3/4
f 78/3/4 77/3/4 79/3/4
f 78/5/4 79/5/4 80/5/4
f 80/5/4 79/5/4 81/5/4
f 80/3/4 81/3/4 82/3/4
f 82/3/4 81/3/4 83/3/4
f 84/2/4 85/2/4 86/2/4
f 86/2/4 85/2/4 87/2/4
f 90/2/5 89/2/5 88/2/5
f 91/2/5 89/2/5 90/2/5
f 96/3/5 93/3/5 92/3/5
f 97/5/5 94/5/5 93/5/5
f 97/3/5 93/3/5 96/3/5
f 98/3/5 95/3/5 94/3/5
f 98/5/5 94/5/5 97/5/5
f 99/3/5 95/3/5 98/3/5
f 102/4/5 101/4/5 100/4/5
f 103/4/5 101/4/5 102/4/5
f 106/4/5 105/4/5 104/4/5
f 107/4/5 105/4/5 106/4/5
f 108/4/5 105/4/5 107/4/5
f 109/4/6 110/4/6 111/4/6
f 111/4/6 110/4/6 112/4/6
f 112/4/6 110/4/6 113/4/6
f 114/4/6 115/4/6 116/4/6
f 116/4/6 115/4/6 117/4/6
f 118/3/6 119/3/6 122/3/6
f 119/5/6 120/5/6 123/5/6
f 122/3/6 119/3/6 123/3/6
f 120/3/6 121/3/6 124/3/6
f 123/5/6 120/5/6 124/5/6
f 124/3/6 121/3/6 125/3/6
f 126/2/6 127/2/6 128/2/6
f 128/2/6 127/2/6 129/2/6
