# MagicaVoxel @ Ephtracy

# group
o 

# material
mtllib Straw_DP02.mtl
usemtl palette

# normals
vn -1 0 0
vn 1 0 0
vn 0 0 1
vn 0 0 -1
vn 0 -1 0
vn 0 1 0

# texcoords
vt 0.958984 0.5
vt 0.970703 0.5
vt 0.986328 0.5

# verts
v -0.5 -1.5 0.2
v -0.5 -1.5 -0.4
v -0.5 -0.7 -0.3
v -0.5 -0.7 -0.4
v -0.5 -0.5 -0.3
v -0.5 -0.5 -0.4
v -0.5 0.3 -0.3
v -0.5 0.3 -0.4
v -0.5 0.4 -0.2
v -0.5 0.4 -0.3
v -0.5 0.4 -0.4
v -0.5 0.5 -0.1
v -0.5 0.5 -0.2
v -0.5 0.5 -0.3
v -0.5 0.7 0
v -0.5 0.7 -0.1
v -0.5 0.7 -0.2
v -0.5 0.8 0.1
v -0.5 0.8 0
v -0.5 0.8 -0.1
v -0.5 0.9 0.2
v -0.5 0.9 0.1
v -0.5 0.9 0
v -0.5 0.9 -0.3
v -0.5 0.9 -0.4
v -0.5 1 0.2
v -0.5 1 0.1
v -0.5 1 -0.3
v -0.5 1 -0.4
v -0.5 2.1 0.2
v -0.5 2.1 0.1
v -0.5 2.4 -0.3
v -0.5 2.4 -0.4
v -0.5 2.5 -0.3
v -0.5 2.5 -0.4
v -0.5 2.6 0.2
v -0.5 2.6 0.1
v -0.5 2.6 0
v -0.5 3 0.1
v -0.5 3 0
v -0.5 3 -0.1
v -0.5 3.4 0
v -0.5 3.4 -0.1
v -0.5 3.4 -0.2
v -0.5 3.6 0.2
v -0.5 3.6 0.1
v -0.5 3.7 0.1
v -0.5 3.7 -0.1
v -0.5 3.7 -0.2
v -0.5 3.7 -0.4
v -0.4 0.3 -0.3
v -0.4 0.3 -0.4
v -0.4 0.4 -0.2
v -0.4 0.4 -0.3
v -0.4 0.4 -0.4
v -0.4 0.5 -0.1
v -0.4 0.5 -0.2
v -0.4 0.5 -0.3
v -0.4 0.7 0
v -0.4 0.7 -0.1
v -0.4 0.7 -0.2
v -0.4 0.8 0.1
v -0.4 0.8 0
v -0.4 0.8 -0.1
v -0.4 0.9 0.2
v -0.4 0.9 0.1
v -0.4 0.9 0
v -0.4 0.9 -0.3
v -0.4 0.9 -0.4
v -0.4 1 0.2
v -0.4 1 0.1
v -0.4 1 -0.3
v -0.4 1 -0.4
v -0.4 2.1 0.2
v -0.4 2.1 0.1
v -0.4 2.6 0.2
v -0.4 2.6 0.1
v -0.4 2.6 0
v -0.4 3 0.1
v -0.4 3 0
v -0.4 3 -0.1
v -0.4 3.4 0
v -0.4 3.4 -0.1
v -0.4 3.4 -0.2
v -0.4 3.6 0.2
v -0.4 3.6 0.1
v -0.4 3.7 0.2
v -0.4 3.7 0.1
v -0.4 3.7 -0.1
v -0.4 3.7 -0.2
v -0.3 -1.5 0.2
v -0.3 -1.5 0.1
v -0.3 -1.5 -0.3
v -0.3 -1.5 -0.4
v -0.3 -0.7 -0.2
v -0.3 -0.7 -0.3
v -0.3 -0.5 -0.2
v -0.3 -0.5 -0.3
v -0.3 -0.5 -0.4
v -0.3 -0.4 -0.3
v -0.3 -0.4 -0.4
v -0.3 -0.2 0.2
v -0.3 -0.2 0.1
v -0.3 -0.2 -0.3
v -0.3 -0.2 -0.4
v -0.3 3.6 0.1
v -0.3 3.6 0
v -0.3 3.6 -0.2
v -0.3 3.6 -0.4
v -0.3 3.7 0.1
v -0.3 3.7 0
v -0.3 3.7 -0.2
v -0.3 3.7 -0.4
v -0.2 -0.5 -0.3
v -0.2 -0.5 -0.4
v -0.2 -0.4 -0.3
v -0.2 -0.4 -0.4
v -0.2 -0.2 0.2
v -0.2 -0.2 0.1
v -0.2 -0.2 -0.3
v -0.2 -0.2 -0.4
v -0.2 0 0.2
v -0.2 0 0.1
v -0.2 0.4 0.2
v -0.2 0.4 0.1
v -0.2 0.8 -0.2
v -0.2 0.8 -0.3
v -0.2 0.8 -0.4
v -0.2 0.9 0.1
v -0.2 0.9 0
v -0.2 0.9 -0.2
v -0.2 0.9 -0.3
v -0.2 0.9 -0.4
v -0.2 1 0.2
v -0.2 1 0.1
v -0.2 1 0
v -0.2 1 -0.1
v -0.2 1.1 0
v -0.2 1.1 -0.1
v -0.2 1.2 0.2
v -0.2 1.2 0.1
v -0.2 1.2 0
v -0.2 1.3 0.2
v -0.2 1.3 0.1
v -0.2 1.4 0.1
v -0.2 1.4 0
v -0.2 1.7 0.2
v -0.2 1.7 0.1
v -0.2 2.2 0.2
v -0.2 2.2 0.1
v -0.2 2.4 -0.3
v -0.2 2.4 -0.4
v -0.2 2.6 0.2
v -0.2 2.6 0.1
v -0.1 0.4 0.2
v -0.1 0.4 0.1
v -0.1 1 0.2
v -0.1 1 0.1
v -0.1 1 0
v -0.1 1.2 0.2
v -0.1 1.2 0.1
v -0.1 1.2 0
v -0.1 1.3 0.2
v -0.1 1.3 0.1
v -0.1 2.4 -0.2
v -0.1 2.4 -0.3
v -0.1 2.5 -0.2
v -0.1 2.5 -0.3
v -0.1 2.5 -0.4
v -0.1 2.6 0.2
v -0.1 2.6 0.1
v -0.1 3.6 0.1
v -0.1 3.6 -0.1
v -0.1 3.6 -0.3
v -0.1 3.6 -0.4
v -0.1 3.7 0.2
v -0.1 3.7 -0.1
v 0 -0.4 -0.3
v 0 -0.4 -0.4
v 0 -0.3 -0.3
v 0 -0.3 -0.4
v 0 -0.2 0.2
v 0 -0.2 0.1
v 0 0.4 0.2
v 0 0.4 0.1
v 0 0.8 -0.3
v 0 0.8 -0.4
v 0 0.9 -0.3
v 0 0.9 -0.4
v 0 1.3 0.2
v 0 1.3 0.1
v 0 1.5 0.2
v 0 1.5 0.1
v 0 3.6 -0.1
v 0 3.6 -0.2
v 0 3.7 -0.1
v 0 3.7 -0.2
v -0.4 -1.5 0.2
v -0.4 -1.5 0.1
v -0.4 -1.5 -0.3
v -0.4 -1.5 -0.4
v -0.4 -0.7 -0.2
v -0.4 -0.7 -0.3
v -0.4 -0.7 -0.4
v -0.4 -0.5 -0.2
v -0.4 -0.5 -0.3
v -0.4 -0.5 -0.4
v -0.4 -0.2 0.2
v -0.4 -0.2 0.1
v -0.4 -0.2 -0.3
v -0.4 -0.2 -0.4
v -0.4 0.8 -0.3
v -0.4 0.8 -0.4
v -0.4 0.9 -0.3
v -0.4 0.9 -0.4
v -0.4 1 0.2
v -0.4 1 0.1
v -0.4 1.1 0.2
v -0.4 1.1 0.1
v -0.4 1.5 0.2
v -0.4 1.5 0.1
v -0.4 2.1 0.2
v -0.4 2.1 0.1
v -0.4 3.6 0.1
v -0.4 3.6 0
v -0.4 3.6 -0.2
v -0.4 3.6 -0.4
v -0.4 3.7 0.1
v -0.4 3.7 0
v -0.4 3.7 -0.2
v -0.4 3.7 -0.4
v -0.3 -0.2 0.2
v -0.3 -0.2 0.1
v -0.3 -0.2 -0.3
v -0.3 -0.2 -0.4
v -0.3 0.8 -0.2
v -0.3 0.8 -0.3
v -0.3 0.8 -0.4
v -0.3 0.9 0.1
v -0.3 0.9 0
v -0.3 0.9 -0.2
v -0.3 0.9 -0.3
v -0.3 0.9 -0.4
v -0.3 1 0.2
v -0.3 1 0.1
v -0.3 1 0
v -0.3 1 -0.1
v -0.3 1.1 0.2
v -0.3 1.1 0.1
v -0.3 1.1 0
v -0.3 1.1 -0.1
v -0.3 1.4 0.1
v -0.3 1.4 0
v -0.3 1.5 0.2
v -0.3 1.5 0.1
v -0.3 2.1 0.2
v -0.3 2.1 0.1
v -0.3 2.4 -0.3
v -0.3 2.4 -0.4
v -0.3 2.6 0.2
v -0.3 2.6 0.1
v -0.3 3.6 0
v -0.3 3.6 -0.1
v -0.3 3.7 0
v -0.3 3.7 -0.1
v -0.2 -0.4 -0.3
v -0.2 -0.4 -0.4
v -0.2 -0.3 -0.3
v -0.2 -0.3 -0.4
v -0.2 2.4 -0.2
v -0.2 2.4 -0.3
v -0.2 2.5 -0.2
v -0.2 2.5 -0.3
v -0.2 2.5 -0.4
v -0.2 2.6 0.2
v -0.2 2.6 0.1
v -0.2 3.2 0.2
v -0.2 3.2 0.1
v -0.2 3.6 0.1
v -0.2 3.6 0
v -0.2 3.6 -0.1
v -0.2 3.6 -0.2
v -0.2 3.7 0.2
v -0.2 3.7 0
v -0.2 3.7 -0.1
v -0.2 3.7 -0.2
v -0.2 3.7 -0.3
v -0.2 3.7 -0.4
v -0.1 -0.2 0.2
v -0.1 -0.2 0.1
v -0.1 0 0.2
v -0.1 0 0.1
v -0.1 0.4 0.2
v -0.1 0.4 0.1
v -0.1 1.3 0.2
v -0.1 1.3 0.1
v -0.1 1.5 0.2
v -0.1 1.5 0.1
v -0.1 3.6 -0.2
v -0.1 3.6 -0.3
v -0.1 3.7 -0.2
v -0.1 3.7 -0.3
v 0 -1.5 0.2
v 0 -1.5 0.1
v 0 -0.9 0.1
v 0 -0.9 0
v 0 -0.7 0.2
v 0 -0.7 0.1
v 0 -0.7 0
v 0 -0.7 -0.1
v 0 -0.6 0
v 0 -0.6 -0.1
v 0 -0.6 -0.2
v 0 -0.5 0.2
v 0 -0.5 0.1
v 0 -0.5 -0.1
v 0 -0.5 -0.2
v 0 -0.5 -0.3
v 0 -0.3 -0.2
v 0 -0.3 -0.3
v 0 -0.3 -0.4
v 0 -0.2 0.2
v 0 -0.2 0.1
v 0 -0.2 -0.3
v 0 -0.2 -0.4
v 0 0.1 0.1
v 0 0.1 0
v 0 0.1 -0.1
v 0 0.4 0.2
v 0 0.4 0.1
v 0 0.5 0.2
v 0 0.5 0.1
v 0 0.5 0
v 0 0.6 0.1
v 0 0.6 0
v 0 0.6 -0.1
v 0 0.6 -0.2
v 0 0.7 -0.1
v 0 0.7 -0.2
v 0 0.7 -0.4
v 0 0.8 -0.2
v 0 0.8 -0.4
v 0 1.1 0
v 0 1.1 -0.1
v 0 1.1 -0.2
v 0 1.5 0.2
v 0 1.5 0.1
v 0 1.6 0.2
v 0 1.6 0.1
v 0 2.1 -0.1
v 0 2.1 -0.2
v 0 2.1 -0.3
v 0 2.2 0.2
v 0 2.2 0.1
v 0 2.3 0.2
v 0 2.3 0.1
v 0 2.3 -0.1
v 0 2.4 0.1
v 0 2.4 -0.1
v 0 2.4 -0.2
v 0 2.4 -0.3
v 0 2.5 -0.1
v 0 2.5 -0.2
v 0 2.5 -0.3
v 0 2.5 -0.4
v 0 2.6 -0.3
v 0 2.6 -0.4
v 0 3.1 -0.2
v 0 3.1 -0.3
v 0 3.1 -0.4
v 0 3.6 -0.3
v 0 3.6 -0.4
v 0.1 -1.5 0.1
v 0.1 -1.5 -0.4
v 0.1 -0.9 0.1
v 0.1 -0.9 0
v 0.1 -0.7 0.2
v 0.1 -0.7 0.1
v 0.1 -0.7 0
v 0.1 -0.7 -0.1
v 0.1 -0.6 0
v 0.1 -0.6 -0.1
v 0.1 -0.6 -0.2
v 0.1 -0.5 0.2
v 0.1 -0.5 0.1
v 0.1 -0.5 -0.1
v 0.1 -0.5 -0.2
v 0.1 -0.5 -0.3
v 0.1 -0.3 -0.2
v 0.1 -0.3 -0.3
v 0.1 -0.3 -0.4
v 0.1 -0.2 0.2
v 0.1 -0.2 0.1
v 0.1 -0.2 -0.3
v 0.1 -0.2 -0.4
v 0.1 0.1 0.1
v 0.1 0.1 0
v 0.1 0.1 -0.1
v 0.1 0.4 0.2
v 0.1 0.4 0.1
v 0.1 0.5 0.2
v 0.1 0.5 0.1
v 0.1 0.5 0
v 0.1 0.6 0.1
v 0.1 0.6 0
v 0.1 0.6 -0.1
v 0.1 0.6 -0.2
v 0.1 0.7 -0.1
v 0.1 0.7 -0.2
v 0.1 0.7 -0.4
v 0.1 0.8 -0.2
v 0.1 0.8 -0.4
v 0.1 1.1 0
v 0.1 1.1 -0.1
v 0.1 1.1 -0.2
v 0.1 1.5 0.2
v 0.1 1.5 0.1
v 0.1 1.6 0.2
v 0.1 1.6 0.1
v 0.1 2.1 -0.1
v 0.1 2.1 -0.2
v 0.1 2.1 -0.3
v 0.1 2.2 0.2
v 0.1 2.2 0.1
v 0.1 2.3 0.2
v 0.1 2.3 0.1
v 0.1 2.3 -0.1
v 0.1 2.4 0.1
v 0.1 2.4 -0.1
v 0.1 2.4 -0.2
v 0.1 2.4 -0.3
v 0.1 2.4 -0.4
v 0.1 2.5 -0.1
v 0.1 2.5 -0.2
v 0.1 2.6 -0.3
v 0.1 2.6 -0.4
v 0.1 3.1 -0.2
v 0.1 3.1 -0.3
v 0.1 3.1 -0.4
v 0.1 3.6 -0.2
v 0.1 3.6 -0.3
v 0.1 3.7 0.2
v 0.1 3.7 -0.2
v -0.5 -1.5 0.2
v -0.5 0.9 0.2
v -0.5 1 0.2
v -0.5 2.1 0.2
v -0.5 2.6 0.2
v -0.5 3.6 0.2
v -0.4 -1.5 0.2
v -0.4 -0.2 0.2
v -0.4 0.9 0.2
v -0.4 1 0.2
v -0.4 1.1 0.2
v -0.4 1.5 0.2
v -0.4 2.1 0.2
v -0.4 2.6 0.2
v -0.4 3.6 0.2
v -0.4 3.7 0.2
v -0.3 -1.5 0.2
v -0.3 -0.2 0.2
v -0.3 1 0.2
v -0.3 1.1 0.2
v -0.3 1.5 0.2
v -0.3 2.1 0.2
v -0.3 2.6 0.2
v -0.3 3.2 0.2
v -0.2 -0.2 0.2
v -0.2 0 0.2
v -0.2 0.4 0.2
v -0.2 1 0.2
v -0.2 1.2 0.2
v -0.2 1.3 0.2
v -0.2 1.7 0.2
v -0.2 2.2 0.2
v -0.2 2.6 0.2
v -0.2 3.2 0.2
v -0.2 3.7 0.2
v -0.1 -0.2 0.2
v -0.1 0 0.2
v -0.1 0.4 0.2
v -0.1 1 0.2
v -0.1 1.2 0.2
v -0.1 1.3 0.2
v -0.1 1.5 0.2
v -0.1 1.7 0.2
v -0.1 2.2 0.2
v -0.1 2.6 0.2
v -0.1 3.7 0.2
v 0 -1.5 0.2
v 0 -0.7 0.2
v 0 -0.5 0.2
v 0 -0.2 0.2
v 0 0.4 0.2
v 0 0.5 0.2
v 0 1.3 0.2
v 0 1.5 0.2
v 0 1.6 0.2
v 0 2.2 0.2
v 0 2.3 0.2
v 0.1 -0.7 0.2
v 0.1 -0.5 0.2
v 0.1 -0.2 0.2
v 0.1 0.4 0.2
v 0.1 0.5 0.2
v 0.1 1.5 0.2
v 0.1 1.6 0.2
v 0.1 2.2 0.2
v 0.1 2.3 0.2
v 0.1 3.7 0.2
v -0.5 0.9 0.1
v -0.5 1 0.1
v -0.5 2.1 0.1
v -0.5 2.6 0.1
v -0.5 3.6 0.1
v -0.5 3.7 0.1
v -0.4 -1.5 0.1
v -0.4 -0.2 0.1
v -0.4 0.9 0.1
v -0.4 1 0.1
v -0.4 1.1 0.1
v -0.4 1.5 0.1
v -0.4 2.1 0.1
v -0.4 2.6 0.1
v -0.4 3.6 0.1
v -0.4 3.7 0.1
v -0.3 -1.5 0.1
v -0.3 -0.2 0.1
v -0.3 0.9 0.1
v -0.3 1 0.1
v -0.3 1.1 0.1
v -0.3 1.4 0.1
v -0.3 1.5 0.1
v -0.3 2.1 0.1
v -0.3 2.6 0.1
v -0.2 -0.2 0.1
v -0.2 0 0.1
v -0.2 0.4 0.1
v -0.2 0.9 0.1
v -0.2 1 0.1
v -0.2 1.2 0.1
v -0.2 1.3 0.1
v -0.2 1.4 0.1
v -0.2 1.7 0.1
v -0.2 2.2 0.1
v -0.2 2.6 0.1
v -0.2 3.2 0.1
v -0.2 3.6 0.1
v -0.1 -0.2 0.1
v -0.1 0 0.1
v -0.1 0.4 0.1
v -0.1 1 0.1
v -0.1 1.2 0.1
v -0.1 1.3 0.1
v -0.1 1.5 0.1
v -0.1 2.6 0.1
v -0.1 3.6 0.1
v 0 -1.5 0.1
v 0 -0.9 0.1
v 0 -0.2 0.1
v 0 0.4 0.1
v 0 0.5 0.1
v 0 1.3 0.1
v 0 1.5 0.1
v 0 1.6 0.1
v 0 2.2 0.1
v 0 2.3 0.1
v 0.1 -1.5 0.1
v 0.1 -0.9 0.1
v 0.1 0.4 0.1
v 0.1 0.5 0.1
v 0.1 1.5 0.1
v 0.1 1.6 0.1
v 0.1 2.2 0.1
v 0.1 2.3 0.1
v -0.5 0.8 0
v -0.5 0.9 0
v -0.5 2.6 0
v -0.5 3 0
v -0.4 0.8 0
v -0.4 0.9 0
v -0.4 2.6 0
v -0.4 3 0
v -0.4 3.6 0
v -0.4 3.7 0
v -0.3 0.9 0
v -0.3 1 0
v -0.3 1.1 0
v -0.3 1.4 0
v -0.3 3.6 0
v -0.3 3.7 0
v -0.2 0.9 0
v -0.2 1 0
v -0.2 1.1 0
v -0.2 1.2 0
v -0.2 1.4 0
v -0.1 1 0
v -0.1 1.2 0
v 0 -0.9 0
v 0 -0.7 0
v 0 -0.6 0
v 0 0.1 0
v 0.1 -0.9 0
v 0.1 -0.7 0
v 0.1 -0.6 0
v 0.1 0.1 0
v -0.5 0.7 -0.1
v -0.5 0.8 -0.1
v -0.5 3 -0.1
v -0.5 3.4 -0.1
v -0.4 0.7 -0.1
v -0.4 0.8 -0.1
v -0.4 3 -0.1
v -0.4 3.4 -0.1
v -0.3 1 -0.1
v -0.3 1.1 -0.1
v -0.3 3.6 -0.1
v -0.3 3.7 -0.1
v -0.2 1 -0.1
v -0.2 1.1 -0.1
v -0.2 3.6 -0.1
v -0.2 3.7 -0.1
v 0 -0.7 -0.1
v 0 -0.6 -0.1
v 0 0.1 -0.1
v 0 0.6 -0.1
v 0 0.7 -0.1
v 0 1.1 -0.1
v 0 2.3 -0.1
v 0 2.4 -0.1
v 0.1 -0.7 -0.1
v 0.1 -0.6 -0.1
v 0.1 0.1 -0.1
v 0.1 0.6 -0.1
v 0.1 0.7 -0.1
v 0.1 1.1 -0.1
v 0.1 2.3 -0.1
v 0.1 2.4 -0.1
v -0.5 0.5 -0.2
v -0.5 0.7 -0.2
v -0.5 3.4 -0.2
v -0.5 3.7 -0.2
v -0.4 0.5 -0.2
v -0.4 0.7 -0.2
v -0.4 3.4 -0.2
v -0.4 3.7 -0.2
v -0.2 3.6 -0.2
v -0.2 3.7 -0.2
v -0.1 3.6 -0.2
v -0.1 3.7 -0.2
v 0 -0.6 -0.2
v 0 -0.5 -0.2
v 0 0.6 -0.2
v 0 0.7 -0.2
v 0 1.1 -0.2
v 0 2.1 -0.2
v 0.1 -0.6 -0.2
v 0.1 -0.5 -0.2
v 0.1 0.6 -0.2
v 0.1 0.7 -0.2
v 0.1 1.1 -0.2
v 0.1 2.1 -0.2
v -0.5 0.4 -0.3
v -0.5 0.5 -0.3
v -0.4 0.4 -0.3
v -0.4 0.5 -0.3
v 0 -0.5 -0.3
v 0 -0.3 -0.3
v 0 2.1 -0.3
v 0 2.4 -0.3
v 0 2.6 -0.3
v 0 3.1 -0.3
v 0.1 -0.5 -0.3
v 0.1 -0.3 -0.3
v 0.1 2.1 -0.3
v 0.1 2.4 -0.3
v 0.1 2.6 -0.3
v 0.1 3.1 -0.3
v -0.5 0.8 0.1
v -0.5 0.9 0.1
v -0.5 2.6 0.1
v -0.5 3 0.1
v -0.4 0.8 0.1
v -0.4 0.9 0.1
v -0.4 2.6 0.1
v -0.4 3 0.1
v -0.4 3.6 0.1
v -0.4 3.7 0.1
v -0.3 3.6 0.1
v -0.3 3.7 0.1
v -0.2 1 0.1
v -0.2 1.2 0.1
v -0.1 1 0.1
v -0.1 1.2 0.1
v 0 -0.7 0.1
v 0 -0.5 0.1
v 0 -0.2 0.1
v 0 0.1 0.1
v 0 0.5 0.1
v 0 0.6 0.1
v 0 2.3 0.1
v 0 2.4 0.1
v 0.1 -0.7 0.1
v 0.1 -0.5 0.1
v 0.1 -0.2 0.1
v 0.1 0.1 0.1
v 0.1 0.5 0.1
v 0.1 0.6 0.1
v 0.1 2.3 0.1
v 0.1 2.4 0.1
v -0.5 0.7 0
v -0.5 0.8 0
v -0.5 3 0
v -0.5 3.4 0
v -0.4 0.7 0
v -0.4 0.8 0
v -0.4 3 0
v -0.4 3.4 0
v -0.3 3.6 0
v -0.3 3.7 0
v -0.2 3.6 0
v -0.2 3.7 0
v 0 0.1 0
v 0 0.5 0
v 0 0.6 0
v 0 1.1 0
v 0.1 0.1 0
v 0.1 0.5 0
v 0.1 0.6 0
v 0.1 1.1 0
v -0.5 0.5 -0.1
v -0.5 0.7 -0.1
v -0.5 3.4 -0.1
v -0.5 3.7 -0.1
v -0.4 0.5 -0.1
v -0.4 0.7 -0.1
v -0.4 3.4 -0.1
v -0.4 3.7 -0.1
v -0.1 3.6 -0.1
v -0.1 3.7 -0.1
v 0 -0.6 -0.1
v 0 -0.5 -0.1
v 0 1.1 -0.1
v 0 2.1 -0.1
v 0 2.4 -0.1
v 0 2.5 -0.1
v 0 3.6 -0.1
v 0 3.7 -0.1
v 0.1 -0.6 -0.1
v 0.1 -0.5 -0.1
v 0.1 1.1 -0.1
v 0.1 2.1 -0.1
v 0.1 2.4 -0.1
v 0.1 2.5 -0.1
v -0.5 0.4 -0.2
v -0.5 0.5 -0.2
v -0.4 -0.7 -0.2
v -0.4 -0.5 -0.2
v -0.4 0.4 -0.2
v -0.4 0.5 -0.2
v -0.4 3.6 -0.2
v -0.4 3.7 -0.2
v -0.3 -0.7 -0.2
v -0.3 -0.5 -0.2
v -0.3 0.8 -0.2
v -0.3 0.9 -0.2
v -0.3 3.6 -0.2
v -0.3 3.7 -0.2
v -0.2 0.8 -0.2
v -0.2 0.9 -0.2
v -0.2 2.4 -0.2
v -0.2 2.5 -0.2
v -0.1 2.4 -0.2
v -0.1 2.5 -0.2
v 0 -0.5 -0.2
v 0 -0.3 -0.2
v 0 0.7 -0.2
v 0 0.8 -0.2
v 0 2.1 -0.2
v 0 2.4 -0.2
v 0 2.5 -0.2
v 0 3.1 -0.2
v 0 3.6 -0.2
v 0 3.7 -0.2
v 0.1 -0.5 -0.2
v 0.1 -0.3 -0.2
v 0.1 0.7 -0.2
v 0.1 0.8 -0.2
v 0.1 2.1 -0.2
v 0.1 2.4 -0.2
v 0.1 2.5 -0.2
v 0.1 3.1 -0.2
v 0.1 3.6 -0.2
v 0.1 3.7 -0.2
v -0.5 -0.7 -0.3
v -0.5 -0.5 -0.3
v -0.5 0.3 -0.3
v -0.5 0.4 -0.3
v -0.5 0.9 -0.3
v -0.5 1 -0.3
v -0.5 2.4 -0.3
v -0.5 2.5 -0.3
v -0.4 -1.5 -0.3
v -0.4 -0.7 -0.3
v -0.4 -0.5 -0.3
v -0.4 -0.2 -0.3
v -0.4 0.3 -0.3
v -0.4 0.4 -0.3
v -0.4 0.8 -0.3
v -0.4 0.9 -0.3
v -0.4 1 -0.3
v -0.3 -1.5 -0.3
v -0.3 -0.7 -0.3
v -0.3 -0.5 -0.3
v -0.3 -0.4 -0.3
v -0.3 -0.2 -0.3
v -0.3 0.8 -0.3
v -0.3 0.9 -0.3
v -0.3 2.4 -0.3
v -0.2 -0.5 -0.3
v -0.2 -0.4 -0.3
v -0.2 -0.3 -0.3
v -0.2 -0.2 -0.3
v -0.2 0.8 -0.3
v -0.2 0.9 -0.3
v -0.2 2.4 -0.3
v -0.2 2.5 -0.3
v -0.2 3.7 -0.3
v -0.1 2.4 -0.3
v -0.1 2.5 -0.3
v -0.1 3.6 -0.3
v -0.1 3.7 -0.3
v 0 -0.4 -0.3
v 0 -0.3 -0.3
v 0 -0.2 -0.3
v 0 0.8 -0.3
v 0 0.9 -0.3
v 0 2.4 -0.3
v 0 2.5 -0.3
v 0 3.1 -0.3
v 0 3.6 -0.3
v 0.1 -0.3 -0.3
v 0.1 -0.2 -0.3
v 0.1 3.1 -0.3
v 0.1 3.6 -0.3
v -0.5 -1.5 -0.4
v -0.5 -0.7 -0.4
v -0.5 -0.5 -0.4
v -0.5 0.3 -0.4
v -0.5 0.4 -0.4
v -0.5 0.9 -0.4
v -0.5 1 -0.4
v -0.5 2.4 -0.4
v -0.5 2.5 -0.4
v -0.5 3.7 -0.4
v -0.4 -1.5 -0.4
v -0.4 -0.7 -0.4
v -0.4 -0.5 -0.4
v -0.4 -0.2 -0.4
v -0.4 0.3 -0.4
v -0.4 0.4 -0.4
v -0.4 0.8 -0.4
v -0.4 0.9 -0.4
v -0.4 1 -0.4
v -0.4 3.6 -0.4
v -0.4 3.7 -0.4
v -0.3 -1.5 -0.4
v -0.3 -0.5 -0.4
v -0.3 -0.4 -0.4
v -0.3 -0.2 -0.4
v -0.3 0.8 -0.4
v -0.3 0.9 -0.4
v -0.3 2.4 -0.4
v -0.3 3.6 -0.4
v -0.3 3.7 -0.4
v -0.2 -0.5 -0.4
v -0.2 -0.4 -0.4
v -0.2 -0.3 -0.4
v -0.2 -0.2 -0.4
v -0.2 0.8 -0.4
v -0.2 0.9 -0.4
v -0.2 2.4 -0.4
v -0.2 2.5 -0.4
v -0.2 3.7 -0.4
v -0.1 2.5 -0.4
v -0.1 3.6 -0.4
v 0 -0.4 -0.4
v 0 -0.3 -0.4
v 0 -0.2 -0.4
v 0 0.7 -0.4
v 0 0.8 -0.4
v 0 0.9 -0.4
v 0 2.5 -0.4
v 0 2.6 -0.4
v 0 3.1 -0.4
v 0 3.6 -0.4
v 0.1 -1.5 -0.4
v 0.1 -0.3 -0.4
v 0.1 -0.2 -0.4
v 0.1 0.7 -0.4
v 0.1 0.8 -0.4
v 0.1 2.4 -0.4
v 0.1 2.6 -0.4
v 0.1 3.1 -0.4
v -0.5 -1.5 0.2
v -0.4 -1.5 0.2
v -0.3 -1.5 0.2
v 0 -1.5 0.2
v -0.4 -1.5 0.1
v -0.3 -1.5 0.1
v 0 -1.5 0.1
v 0.1 -1.5 0.1
v -0.4 -1.5 -0.3
v -0.3 -1.5 -0.3
v -0.5 -1.5 -0.4
v -0.4 -1.5 -0.4
v -0.3 -1.5 -0.4
v 0.1 -1.5 -0.4
v 0 -0.7 0.2
v 0.1 -0.7 0.2
v 0 -0.7 0.1
v 0.1 -0.7 0.1
v 0 -0.6 0
v 0.1 -0.6 0
v 0 -0.6 -0.1
v 0.1 -0.6 -0.1
v 0 -0.5 -0.1
v 0.1 -0.5 -0.1
v -0.4 -0.5 -0.2
v -0.3 -0.5 -0.2
v 0 -0.5 -0.2
v 0.1 -0.5 -0.2
v -0.5 -0.5 -0.3
v -0.4 -0.5 -0.3
v -0.3 -0.5 -0.3
v -0.5 -0.5 -0.4
v -0.4 -0.5 -0.4
v -0.3 -0.4 -0.3
v -0.2 -0.4 -0.3
v -0.3 -0.4 -0.4
v -0.2 -0.4 -0.4
v 0 -0.3 -0.2
v 0.1 -0.3 -0.2
v -0.2 -0.3 -0.3
v 0 -0.3 -0.3
v 0.1 -0.3 -0.3
v -0.2 -0.3 -0.4
v 0 -0.3 -0.4
v -0.4 -0.2 0.2
v -0.3 -0.2 0.2
v 0 -0.2 0.2
v 0.1 -0.2 0.2
v -0.4 -0.2 0.1
v -0.3 -0.2 0.1
v 0 -0.2 0.1
v 0.1 -0.2 0.1
v -0.4 -0.2 -0.3
v -0.3 -0.2 -0.3
v 0 -0.2 -0.3
v 0.1 -0.2 -0.3
v -0.4 -0.2 -0.4
v -0.3 -0.2 -0.4
v 0 -0.2 -0.4
v 0.1 -0.2 -0.4
v 0 0.1 0.1
v 0.1 0.1 0.1
v 0 0.1 0
v 0.1 0.1 0
v -0.1 0.4 0.2
v 0 0.4 0.2
v -0.1 0.4 0.1
v 0 0.4 0.1
v -0.5 0.4 -0.3
v -0.4 0.4 -0.3
v -0.5 0.4 -0.4
v -0.4 0.4 -0.4
v 0 0.5 0.2
v 0.1 0.5 0.2
v 0 0.5 0.1
v 0.1 0.5 0.1
v -0.5 0.5 -0.2
v -0.4 0.5 -0.2
v -0.5 0.5 -0.3
v -0.4 0.5 -0.3
v 0 0.6 0.1
v 0.1 0.6 0.1
v 0 0.6 0
v 0.1 0.6 0
v -0.5 0.7 -0.1
v -0.4 0.7 -0.1
v 0 0.7 -0.1
v 0.1 0.7 -0.1
v -0.5 0.7 -0.2
v -0.4 0.7 -0.2
v 0 0.7 -0.2
v 0.1 0.7 -0.2
v -0.5 0.8 0
v -0.4 0.8 0
v -0.5 0.8 -0.1
v -0.4 0.8 -0.1
v 0 0.8 -0.2
v 0.1 0.8 -0.2
v 0 0.8 -0.4
v 0.1 0.8 -0.4
v -0.5 0.9 0.1
v -0.4 0.9 0.1
v -0.5 0.9 0
v -0.4 0.9 0
v -0.3 0.9 -0.2
v -0.2 0.9 -0.2
v -0.4 0.9 -0.3
v -0.3 0.9 -0.3
v -0.2 0.9 -0.3
v 0 0.9 -0.3
v -0.4 0.9 -0.4
v -0.3 0.9 -0.4
v -0.2 0.9 -0.4
v 0 0.9 -0.4
v -0.5 1 0.2
v -0.4 1 0.2
v -0.2 1 0.2
v -0.1 1 0.2
v -0.5 1 0.1
v -0.4 1 0.1
v -0.2 1 0.1
v -0.1 1 0.1
v -0.5 1 -0.3
v -0.4 1 -0.3
v -0.5 1 -0.4
v -0.4 1 -0.4
v -0.4 1.1 0.2
v -0.3 1.1 0.2
v -0.4 1.1 0.1
v -0.3 1.1 0.1
v -0.3 1.1 0
v -0.2 1.1 0
v 0 1.1 0
v 0.1 1.1 0
v -0.3 1.1 -0.1
v -0.2 1.1 -0.1
v 0 1.1 -0.1
v 0.1 1.1 -0.1
v -0.2 1.2 0.1
v -0.1 1.2 0.1
v -0.2 1.2 0
v -0.1 1.2 0
v -0.2 1.3 0.2
v -0.1 1.3 0.2
v -0.2 1.3 0.1
v -0.1 1.3 0.1
v -0.3 1.4 0.1
v -0.2 1.4 0.1
v -0.3 1.4 0
v -0.2 1.4 0
v -0.1 1.5 0.2
v 0 1.5 0.2
v -0.1 1.5 0.1
v 0 1.5 0.1
v 0 1.6 0.2
v 0.1 1.6 0.2
v 0 1.6 0.1
v 0.1 1.6 0.1
v -0.4 2.1 0.2
v -0.3 2.1 0.2
v -0.4 2.1 0.1
v -0.3 2.1 0.1
v 0 2.1 -0.1
v 0.1 2.1 -0.1
v 0 2.1 -0.2
v 0.1 2.1 -0.2
v 0 2.3 0.2
v 0.1 2.3 0.2
v 0 2.3 0.1
v 0.1 2.3 0.1
v 0 2.4 0.1
v 0.1 2.4 0.1
v 0 2.4 -0.1
v 0.1 2.4 -0.1
v 0 2.5 -0.1
v 0.1 2.5 -0.1
v -0.2 2.5 -0.2
v -0.1 2.5 -0.2
v 0 2.5 -0.2
v 0.1 2.5 -0.2
v -0.5 2.5 -0.3
v -0.2 2.5 -0.3
v -0.1 2.5 -0.3
v 0 2.5 -0.3
v -0.5 2.5 -0.4
v -0.2 2.5 -0.4
v -0.1 2.5 -0.4
v 0 2.5 -0.4
v -0.5 2.6 0.2
v -0.4 2.6 0.2
v -0.3 2.6 0.2
v -0.2 2.6 0.2
v -0.5 2.6 0.1
v -0.4 2.6 0.1
v -0.3 2.6 0.1
v -0.2 2.6 0.1
v 0 2.6 -0.3
v 0.1 2.6 -0.3
v 0 2.6 -0.4
v 0.1 2.6 -0.4
v -0.5 3 0.1
v -0.4 3 0.1
v -0.5 3 0
v -0.4 3 0
v 0 3.1 -0.2
v 0.1 3.1 -0.2
v 0 3.1 -0.3
v 0.1 3.1 -0.3
v -0.5 3.4 0
v -0.4 3.4 0
v -0.5 3.4 -0.1
v -0.4 3.4 -0.1
v 0 -0.9 0.1
v 0.1 -0.9 0.1
v 0 -0.9 0
v 0.1 -0.9 0
v 0 -0.7 0
v 0.1 -0.7 0
v 0 -0.7 -0.1
v 0.1 -0.7 -0.1
v -0.4 -0.7 -0.2
v -0.3 -0.7 -0.2
v -0.5 -0.7 -0.3
v -0.4 -0.7 -0.3
v -0.3 -0.7 -0.3
v -0.5 -0.7 -0.4
v -0.4 -0.7 -0.4
v 0 -0.6 -0.1
v 0.1 -0.6 -0.1
v 0 -0.6 -0.2
v 0.1 -0.6 -0.2
v 0 -0.5 0.2
v 0.1 -0.5 0.2
v 0 -0.5 0.1
v 0.1 -0.5 0.1
v 0 -0.5 -0.2
v 0.1 -0.5 -0.2
v -0.3 -0.5 -0.3
v -0.2 -0.5 -0.3
v 0 -0.5 -0.3
v 0.1 -0.5 -0.3
v -0.3 -0.5 -0.4
v -0.2 -0.5 -0.4
v -0.2 -0.4 -0.3
v 0 -0.4 -0.3
v -0.2 -0.4 -0.4
v 0 -0.4 -0.4
v 0 -0.3 -0.3
v 0.1 -0.3 -0.3
v 0 -0.3 -0.4
v 0.1 -0.3 -0.4
v -0.3 -0.2 0.2
v -0.2 -0.2 0.2
v -0.1 -0.2 0.2
v 0 -0.2 0.2
v -0.3 -0.2 0.1
v -0.2 -0.2 0.1
v -0.1 -0.2 0.1
v 0 -0.2 0.1
v -0.3 -0.2 -0.3
v -0.2 -0.2 -0.3
v -0.3 -0.2 -0.4
v -0.2 -0.2 -0.4
v 0 0.1 0
v 0.1 0.1 0
v 0 0.1 -0.1
v 0.1 0.1 -0.1
v -0.5 0.3 -0.3
v -0.4 0.3 -0.3
v -0.5 0.3 -0.4
v -0.4 0.3 -0.4
v -0.2 0.4 0.2
v -0.1 0.4 0.2
v 0 0.4 0.2
v 0.1 0.4 0.2
v -0.2 0.4 0.1
v -0.1 0.4 0.1
v 0 0.4 0.1
v 0.1 0.4 0.1
v -0.5 0.4 -0.2
v -0.4 0.4 -0.2
v -0.5 0.4 -0.3
v -0.4 0.4 -0.3
v 0 0.5 0.1
v 0.1 0.5 0.1
v 0 0.5 0
v 0.1 0.5 0
v -0.5 0.5 -0.1
v -0.4 0.5 -0.1
v -0.5 0.5 -0.2
v -0.4 0.5 -0.2
v 0 0.6 -0.1
v 0.1 0.6 -0.1
v 0 0.6 -0.2
v 0.1 0.6 -0.2
v -0.5 0.7 0
v -0.4 0.7 0
v -0.5 0.7 -0.1
v -0.4 0.7 -0.1
v 0 0.7 -0.2
v 0.1 0.7 -0.2
v 0 0.7 -0.4
v 0.1 0.7 -0.4
v -0.5 0.8 0.1
v -0.4 0.8 0.1
v -0.5 0.8 0
v -0.4 0.8 0
v -0.3 0.8 -0.2
v -0.2 0.8 -0.2
v -0.4 0.8 -0.3
v -0.3 0.8 -0.3
v -0.2 0.8 -0.3
v 0 0.8 -0.3
v -0.4 0.8 -0.4
v -0.3 0.8 -0.4
v -0.2 0.8 -0.4
v 0 0.8 -0.4
v -0.5 0.9 0.2
v -0.4 0.9 0.2
v -0.5 0.9 0.1
v -0.4 0.9 0.1
v -0.3 0.9 0.1
v -0.2 0.9 0.1
v -0.3 0.9 0
v -0.2 0.9 0
v -0.5 0.9 -0.3
v -0.4 0.9 -0.3
v -0.5 0.9 -0.4
v -0.4 0.9 -0.4
v -0.4 1 0.2
v -0.3 1 0.2
v -0.4 1 0.1
v -0.3 1 0.1
v -0.2 1 0.1
v -0.1 1 0.1
v -0.3 1 0
v -0.2 1 0
v -0.1 1 0
v -0.3 1 -0.1
v -0.2 1 -0.1
v 0 1.1 -0.1
v 0.1 1.1 -0.1
v 0 1.1 -0.2
v 0.1 1.1 -0.2
v -0.2 1.2 0.2
v -0.1 1.2 0.2
v -0.2 1.2 0.1
v -0.1 1.2 0.1
v -0.1 1.3 0.2
v 0 1.3 0.2
v -0.1 1.3 0.1
v 0 1.3 0.1
v -0.4 1.5 0.2
v -0.3 1.5 0.2
v 0 1.5 0.2
v 0.1 1.5 0.2
v -0.4 1.5 0.1
v -0.3 1.5 0.1
v 0 1.5 0.1
v 0.1 1.5 0.1
v -0.5 2.1 0.2
v -0.4 2.1 0.2
v -0.5 2.1 0.1
v -0.4 2.1 0.1
v 0 2.1 -0.2
v 0.1 2.1 -0.2
v 0 2.1 -0.3
v 0.1 2.1 -0.3
v 0 2.2 0.2
v 0.1 2.2 0.2
v 0 2.2 0.1
v 0.1 2.2 0.1
v 0 2.3 0.1
v 0.1 2.3 0.1
v 0 2.3 -0.1
v 0.1 2.3 -0.1
v 0 2.4 -0.1
v 0.1 2.4 -0.1
v -0.2 2.4 -0.2
v -0.1 2.4 -0.2
v 0 2.4 -0.2
v 0.1 2.4 -0.2
v -0.5 2.4 -0.3
v -0.3 2.4 -0.3
v -0.2 2.4 -0.3
v -0.1 2.4 -0.3
v 0 2.4 -0.3
v 0.1 2.4 -0.3
v -0.5 2.4 -0.4
v -0.3 2.4 -0.4
v -0.2 2.4 -0.4
v 0.1 2.4 -0.4
v -0.2 2.6 0.2
v -0.1 2.6 0.2
v -0.5 2.6 0.1
v -0.4 2.6 0.1
v -0.2 2.6 0.1
v -0.1 2.6 0.1
v -0.5 2.6 0
v -0.4 2.6 0
v -0.5 3 0
v -0.4 3 0
v -0.5 3 -0.1
v -0.4 3 -0.1
v 0 3.1 -0.3
v 0.1 3.1 -0.3
v 0 3.1 -0.4
v 0.1 3.1 -0.4
v -0.5 3.4 -0.1
v -0.4 3.4 -0.1
v -0.5 3.4 -0.2
v -0.4 3.4 -0.2
v -0.5 3.6 0.2
v -0.4 3.6 0.2
v -0.5 3.6 0.1
v -0.4 3.6 0.1
v -0.3 3.6 0.1
v -0.2 3.6 0.1
v -0.1 3.6 0.1
v -0.4 3.6 0
v -0.3 3.6 0
v -0.2 3.6 0
v -0.3 3.6 -0.1
v -0.2 3.6 -0.1
v -0.1 3.6 -0.1
v 0 3.6 -0.1
v -0.4 3.6 -0.2
v -0.3 3.6 -0.2
v -0.2 3.6 -0.2
v -0.1 3.6 -0.2
v 0 3.6 -0.2
v 0.1 3.6 -0.2
v -0.1 3.6 -0.3
v 0 3.6 -0.3
v 0.1 3.6 -0.3
v -0.4 3.6 -0.4
v -0.3 3.6 -0.4
v -0.1 3.6 -0.4
v 0 3.6 -0.4
v -0.4 3.7 0.2
v -0.2 3.7 0.2
v -0.1 3.7 0.2
v 0.1 3.7 0.2
v -0.5 3.7 0.1
v -0.4 3.7 0.1
v -0.3 3.7 0.1
v -0.4 3.7 0
v -0.3 3.7 0
v -0.2 3.7 0
v -0.5 3.7 -0.1
v -0.4 3.7 -0.1
v -0.3 3.7 -0.1
v -0.2 3.7 -0.1
v -0.1 3.7 -0.1
v 0 3.7 -0.1
v -0.5 3.7 -0.2
v -0.4 3.7 -0.2
v -0.3 3.7 -0.2
v -0.2 3.7 -0.2
v -0.1 3.7 -0.2
v 0 3.7 -0.2
v 0.1 3.7 -0.2
v -0.2 3.7 -0.3
v -0.1 3.7 -0.3
v -0.5 3.7 -0.4
v -0.4 3.7 -0.4
v -0.3 3.7 -0.4
v -0.2 3.7 -0.4

# faces
f 3/3/1 2/3/1 1/3/1
f 4/3/1 2/3/1 3/3/1
f 5/3/1 3/3/1 1/3/1
f 7/3/1 5/3/1 1/3/1
f 7/3/1 6/3/1 5/3/1
f 8/3/1 6/3/1 7/3/1
f 9/3/1 7/3/1 1/3/1
f 10/3/1 7/3/1 9/3/1
f 12/3/1 9/3/1 1/3/1
f 13/3/1 9/3/1 12/3/1
f 14/3/1 11/3/1 10/3/1
f 15/3/1 12/3/1 1/3/1
f 16/3/1 12/3/1 15/3/1
f 17/3/1 14/3/1 13/3/1
f 18/3/1 15/3/1 1/3/1
f 19/3/1 15/3/1 18/3/1
f 20/3/1 17/3/1 16/3/1
f 21/3/1 18/3/1 1/3/1
f 22/3/1 18/3/1 21/3/1
f 23/3/1 20/3/1 19/3/1
f 24/3/1 11/3/1 14/3/1
f 24/3/1 14/3/1 17/3/1
f 24/3/1 20/3/1 23/3/1
f 24/3/1 17/3/1 20/3/1
f 25/3/1 11/3/1 24/3/1
f 27/3/1 23/3/1 22/3/1
f 27/3/1 24/3/1 23/3/1
f 28/3/1 24/3/1 27/3/1
f 30/3/1 27/3/1 26/3/1
f 30/3/1 29/3/1 28/3/1
f 30/3/1 28/3/1 27/3/1
f 31/3/1 29/3/1 30/3/1
f 32/3/1 29/3/1 31/3/1
f 33/3/1 29/3/1 32/3/1
f 34/3/1 32/3/1 31/3/1
f 37/3/1 34/3/1 31/3/1
f 37/3/1 35/3/1 34/3/1
f 38/3/1 35/3/1 37/3/1
f 39/3/1 37/3/1 36/3/1
f 40/3/1 35/3/1 38/3/1
f 41/3/1 35/3/1 40/3/1
f 42/3/1 40/3/1 39/3/1
f 43/3/1 35/3/1 41/3/1
f 44/3/1 35/3/1 43/3/1
f 45/3/1 39/3/1 36/3/1
f 45/3/1 42/3/1 39/3/1
f 45/3/1 43/3/1 42/3/1
f 46/3/1 43/3/1 45/3/1
f 47/3/1 43/3/1 46/3/1
f 48/3/1 43/3/1 47/3/1
f 49/3/1 35/3/1 44/3/1
f 50/3/1 35/3/1 49/3/1
f 54/3/1 52/3/1 51/3/1
f 55/3/1 52/3/1 54/3/1
f 57/3/1 54/3/1 53/3/1
f 58/3/1 54/3/1 57/3/1
f 60/3/1 57/3/1 56/3/1
f 61/3/1 57/3/1 60/3/1
f 63/3/1 60/3/1 59/3/1
f 64/3/1 60/3/1 63/3/1
f 66/3/1 63/3/1 62/3/1
f 67/3/1 63/3/1 66/3/1
f 70/3/1 66/3/1 65/3/1
f 71/3/1 66/3/1 70/3/1
f 72/3/1 69/3/1 68/3/1
f 73/3/1 69/3/1 72/3/1
f 76/3/1 75/3/1 74/3/1
f 77/3/1 75/3/1 76/3/1
f 79/3/1 78/3/1 77/3/1
f 80/3/1 78/3/1 79/3/1
f 82/3/1 81/3/1 80/3/1
f 83/3/1 81/3/1 82/3/1
f 87/3/1 86/3/1 85/3/1
f 88/3/1 86/3/1 87/3/1
f 89/3/1 84/3/1 83/3/1
f 90/3/1 84/3/1 89/3/1
f 96/3/1 94/3/1 93/3/1
f 97/3/1 96/3/1 95/3/1
f 98/3/1 94/3/1 96/3/1
f 98/3/1 96/3/1 97/3/1
f 99/3/1 94/3/1 98/3/1
f 102/3/1 92/3/1 91/3/1
f 103/3/1 92/3/1 102/3/1
f 104/3/1 101/3/1 100/3/1
f 105/3/1 101/3/1 104/3/1
f 110/3/1 107/3/1 106/3/1
f 111/3/1 107/3/1 110/3/1
f 112/3/1 109/3/1 108/3/1
f 113/3/1 109/3/1 112/3/1
f 116/3/1 115/3/1 114/3/1
f 117/3/1 115/3/1 116/3/1
f 122/3/1 119/3/1 118/3/1
f 123/3/1 119/3/1 122/3/1
f 124/2/1 123/2/1 122/2/1
f 125/2/1 123/2/1 124/2/1
f 127/3/1 121/3/1 120/3/1
f 128/3/1 121/3/1 127/3/1
f 131/3/1 127/3/1 126/3/1
f 132/3/1 127/3/1 131/3/1
f 135/3/1 130/3/1 129/3/1
f 136/3/1 130/3/1 135/3/1
f 138/3/1 137/3/1 136/3/1
f 139/3/1 137/3/1 138/3/1
f 140/2/1 135/2/1 134/2/1
f 141/2/1 135/2/1 140/2/1
f 144/3/1 142/3/1 141/3/1
f 145/3/1 142/3/1 144/3/1
f 145/2/1 144/2/1 143/2/1
f 146/3/1 142/3/1 145/3/1
f 147/2/1 145/2/1 143/2/1
f 148/2/1 145/2/1 147/2/1
f 149/1/1 148/1/1 147/1/1
f 150/1/1 148/1/1 149/1/1
f 151/3/1 133/3/1 132/3/1
f 152/3/1 133/3/1 151/3/1
f 153/2/1 150/2/1 149/2/1
f 154/2/1 150/2/1 153/2/1
f 157/3/1 156/3/1 155/3/1
f 158/3/1 156/3/1 157/3/1
f 161/3/1 159/3/1 158/3/1
f 162/3/1 159/3/1 161/3/1
f 163/3/1 161/3/1 160/3/1
f 164/3/1 161/3/1 163/3/1
f 167/3/1 166/3/1 165/3/1
f 168/3/1 166/3/1 167/3/1
f 172/3/1 171/3/1 170/3/1
f 174/3/1 169/3/1 168/3/1
f 175/3/1 169/3/1 174/3/1
f 176/3/1 173/3/1 172/3/1
f 176/3/1 172/3/1 170/3/1
f 177/3/1 173/3/1 176/3/1
f 180/3/1 179/3/1 178/3/1
f 181/3/1 179/3/1 180/3/1
f 184/3/1 183/3/1 182/3/1
f 185/3/1 183/3/1 184/3/1
f 188/3/1 187/3/1 186/3/1
f 189/3/1 187/3/1 188/3/1
f 192/3/1 191/3/1 190/3/1
f 193/3/1 191/3/1 192/3/1
f 196/3/1 195/3/1 194/3/1
f 197/3/1 195/3/1 196/3/1
f 200/3/2 201/3/2 203/3/2
f 203/3/2 201/3/2 204/3/2
f 202/3/2 203/3/2 205/3/2
f 205/3/2 203/3/2 206/3/2
f 198/3/2 199/3/2 208/3/2
f 208/3/2 199/3/2 209/3/2
f 206/3/2 207/3/2 210/3/2
f 210/3/2 207/3/2 211/3/2
f 212/3/2 213/3/2 214/3/2
f 214/3/2 213/3/2 215/3/2
f 216/3/2 217/3/2 218/3/2
f 218/3/2 217/3/2 219/3/2
f 220/3/2 221/3/2 222/3/2
f 222/3/2 221/3/2 223/3/2
f 224/3/2 225/3/2 228/3/2
f 228/3/2 225/3/2 229/3/2
f 226/3/2 227/3/2 230/3/2
f 230/3/2 227/3/2 231/3/2
f 234/3/2 235/3/2 237/3/2
f 237/3/2 235/3/2 238/3/2
f 232/3/2 233/3/2 239/3/2
f 236/3/2 237/3/2 241/3/2
f 241/3/2 237/3/2 242/3/2
f 239/3/2 240/3/2 244/3/2
f 232/3/2 239/3/2 244/3/2
f 244/3/2 240/3/2 245/3/2
f 245/3/2 240/3/2 246/3/2
f 246/3/2 247/3/2 249/3/2
f 245/3/2 246/3/2 249/3/2
f 249/3/2 247/3/2 250/3/2
f 250/3/2 247/3/2 251/3/2
f 248/3/2 249/3/2 252/3/2
f 249/3/2 250/3/2 252/3/2
f 252/3/2 250/3/2 253/3/2
f 248/3/2 252/3/2 254/3/2
f 254/3/2 252/3/2 255/3/2
f 242/3/2 243/3/2 258/3/2
f 258/3/2 243/3/2 259/3/2
f 256/3/2 257/3/2 260/3/2
f 260/3/2 257/3/2 261/3/2
f 262/3/2 263/3/2 264/3/2
f 264/3/2 263/3/2 265/3/2
f 266/3/2 267/3/2 268/3/2
f 268/3/2 267/3/2 269/3/2
f 270/3/2 271/3/2 272/3/2
f 272/3/2 271/3/2 273/3/2
f 275/2/2 276/2/2 277/2/2
f 277/2/2 276/2/2 278/2/2
f 277/3/2 278/3/2 279/3/2
f 277/3/2 279/3/2 283/3/2
f 279/3/2 280/3/2 283/3/2
f 283/3/2 280/3/2 284/3/2
f 281/3/2 282/3/2 285/3/2
f 285/3/2 282/3/2 286/3/2
f 273/3/2 274/3/2 287/3/2
f 287/3/2 274/3/2 288/3/2
f 289/3/2 290/3/2 291/3/2
f 291/3/2 290/3/2 292/3/2
f 291/2/2 292/2/2 293/2/2
f 293/2/2 292/2/2 294/2/2
f 295/2/2 296/2/2 297/2/2
f 297/2/2 296/2/2 298/2/2
f 299/3/2 300/3/2 301/3/2
f 301/3/2 300/3/2 302/3/2
f 303/3/2 304/3/2 305/3/2
f 303/3/2 305/3/2 307/3/2
f 305/3/2 306/3/2 307/3/2
f 307/3/2 306/3/2 308/3/2
f 308/3/2 306/3/2 309/3/2
f 309/3/2 310/3/2 311/3/2
f 308/3/2 309/3/2 311/3/2
f 311/3/2 310/3/2 312/3/2
f 308/3/2 311/3/2 315/3/2
f 312/3/2 313/3/2 316/3/2
f 316/3/2 313/3/2 317/3/2
f 317/3/2 318/3/2 319/3/2
f 319/3/2 318/3/2 320/3/2
f 314/3/2 315/3/2 322/3/2
f 315/3/2 311/3/2 323/3/2
f 322/3/2 315/3/2 323/3/2
f 320/3/2 321/3/2 324/3/2
f 324/3/2 321/3/2 325/3/2
f 323/3/2 311/3/2 326/3/2
f 326/3/2 311/3/2 327/3/2
f 329/3/2 330/3/2 331/3/2
f 331/3/2 330/3/2 332/3/2
f 327/3/2 328/3/2 333/3/2
f 332/3/2 333/3/2 334/3/2
f 333/3/2 328/3/2 335/3/2
f 334/3/2 333/3/2 335/3/2
f 335/3/2 328/3/2 336/3/2
f 336/3/2 337/3/2 338/3/2
f 335/3/2 336/3/2 338/3/2
f 338/3/2 337/3/2 339/3/2
f 339/3/2 340/3/2 341/3/2
f 341/3/2 340/3/2 342/3/2
f 335/3/2 338/3/2 343/3/2
f 343/3/2 338/3/2 344/3/2
f 346/3/2 347/3/2 348/3/2
f 348/3/2 347/3/2 349/3/2
f 344/3/2 345/3/2 350/3/2
f 350/3/2 345/3/2 351/3/2
f 353/3/2 354/3/2 355/3/2
f 355/3/2 354/3/2 356/3/2
f 356/3/2 357/3/2 358/3/2
f 358/3/2 357/3/2 359/3/2
f 351/3/2 352/3/2 360/3/2
f 360/3/2 352/3/2 361/3/2
f 359/3/2 360/3/2 362/3/2
f 360/3/2 361/3/2 362/3/2
f 362/3/2 361/3/2 363/3/2
f 363/3/2 361/3/2 364/3/2
f 363/3/2 364/3/2 366/3/2
f 364/3/2 365/3/2 366/3/2
f 366/3/2 365/3/2 367/3/2
f 363/3/2 366/3/2 368/3/2
f 368/3/2 366/3/2 369/3/2
f 369/3/2 370/3/2 371/3/2
f 371/3/2 370/3/2 372/3/2
f 373/3/2 374/3/2 375/3/2
f 375/3/2 374/3/2 376/3/2
f 376/3/2 374/3/2 379/3/2
f 379/3/2 374/3/2 380/3/2
f 380/3/2 374/3/2 382/3/2
f 382/3/2 374/3/2 383/3/2
f 377/3/2 378/3/2 384/3/2
f 384/3/2 378/3/2 385/3/2
f 381/3/2 382/3/2 386/3/2
f 383/3/2 374/3/2 387/3/2
f 387/3/2 374/3/2 388/3/2
f 386/3/2 387/3/2 389/3/2
f 388/3/2 374/3/2 390/3/2
f 390/3/2 374/3/2 391/3/2
f 389/3/2 390/3/2 394/3/2
f 392/3/2 393/3/2 396/3/2
f 381/3/2 386/3/2 397/3/2
f 386/3/2 389/3/2 397/3/2
f 389/3/2 394/3/2 397/3/2
f 394/3/2 395/3/2 397/3/2
f 397/3/2 395/3/2 398/3/2
f 392/3/2 396/3/2 399/3/2
f 396/3/2 397/3/2 399/3/2
f 399/3/2 397/3/2 400/3/2
f 400/3/2 397/3/2 402/3/2
f 402/3/2 397/3/2 403/3/2
f 401/3/2 402/3/2 404/3/2
f 398/3/2 395/3/2 406/3/2
f 406/3/2 395/3/2 407/3/2
f 407/3/2 395/3/2 409/3/2
f 409/3/2 395/3/2 410/3/2
f 408/3/2 409/3/2 411/3/2
f 404/3/2 405/3/2 413/3/2
f 411/3/2 412/3/2 414/3/2
f 408/3/2 411/3/2 414/3/2
f 414/3/2 412/3/2 415/3/2
f 404/3/2 413/3/2 416/3/2
f 401/3/2 404/3/2 416/3/2
f 413/3/2 414/3/2 416/3/2
f 416/3/2 414/3/2 417/3/2
f 417/3/2 414/3/2 419/3/2
f 419/3/2 414/3/2 420/3/2
f 418/3/2 419/3/2 420/3/2
f 415/3/2 412/3/2 421/3/2
f 421/3/2 412/3/2 422/3/2
f 418/3/2 420/3/2 423/3/2
f 420/3/2 421/3/2 423/3/2
f 423/3/2 421/3/2 424/3/2
f 424/3/2 421/3/2 426/3/2
f 426/3/2 421/3/2 427/3/2
f 425/3/2 426/3/2 428/3/2
f 427/3/2 421/3/2 429/3/2
f 429/3/2 421/3/2 430/3/2
f 422/3/2 412/3/2 431/3/2
f 431/3/2 412/3/2 432/3/2
f 428/3/2 429/3/2 433/3/2
f 433/3/2 434/3/2 437/3/2
f 435/3/2 436/3/2 438/3/2
f 438/3/2 436/3/2 439/3/2
f 433/3/2 437/3/2 440/3/2
f 437/3/2 438/3/2 440/3/2
f 440/3/2 438/3/2 441/3/2
f 425/3/2 428/3/2 442/3/2
f 428/3/2 433/3/2 442/3/2
f 433/3/2 440/3/2 442/3/2
f 442/3/2 440/3/2 443/3/2
f 450/3/3 445/3/3 444/3/3
f 451/3/3 445/3/3 450/3/3
f 452/3/3 445/3/3 451/3/3
f 453/3/3 447/3/3 446/3/3
f 454/3/3 447/3/3 453/3/3
f 455/3/3 447/3/3 454/3/3
f 456/3/3 447/3/3 455/3/3
f 457/3/3 449/3/3 448/3/3
f 458/3/3 449/3/3 457/3/3
f 461/3/3 452/3/3 451/3/3
f 461/3/3 453/3/3 452/3/3
f 462/3/3 453/3/3 461/3/3
f 463/3/3 455/3/3 454/3/3
f 464/3/3 455/3/3 463/3/3
f 465/3/3 459/3/3 458/3/3
f 465/3/3 458/3/3 457/3/3
f 465/3/3 457/3/3 456/3/3
f 466/3/3 459/3/3 465/3/3
f 467/3/3 459/3/3 466/3/3
f 468/3/3 461/3/3 460/3/3
f 476/2/3 467/2/3 466/2/3
f 477/3/3 459/3/3 467/3/3
f 477/2/3 467/2/3 476/2/3
f 478/3/3 459/3/3 477/3/3
f 479/3/3 468/3/3 460/3/3
f 479/3/3 469/3/3 468/3/3
f 480/2/3 470/2/3 469/2/3
f 480/3/3 469/3/3 479/3/3
f 481/2/3 470/2/3 480/2/3
f 482/2/3 472/2/3 471/2/3
f 483/2/3 472/2/3 482/2/3
f 484/2/3 474/2/3 473/2/3
f 485/2/3 474/2/3 484/2/3
f 486/1/3 475/1/3 474/1/3
f 486/2/3 474/2/3 485/2/3
f 487/2/3 476/2/3 475/2/3
f 487/1/3 475/1/3 486/1/3
f 488/2/3 476/2/3 487/2/3
f 490/3/3 479/3/3 460/3/3
f 491/3/3 479/3/3 490/3/3
f 492/3/3 479/3/3 491/3/3
f 493/3/3 479/3/3 492/3/3
f 494/3/3 483/3/3 482/3/3
f 494/3/3 484/3/3 483/3/3
f 494/3/3 482/3/3 481/3/3
f 495/3/3 484/3/3 494/3/3
f 496/3/3 484/3/3 495/3/3
f 497/3/3 486/3/3 485/3/3
f 497/3/3 489/3/3 488/3/3
f 497/3/3 488/3/3 487/3/3
f 497/3/3 487/3/3 486/3/3
f 498/3/3 489/3/3 497/3/3
f 499/3/3 489/3/3 498/3/3
f 500/3/3 489/3/3 499/3/3
f 501/3/3 492/3/3 491/3/3
f 502/3/3 492/3/3 501/3/3
f 503/3/3 494/3/3 493/3/3
f 504/3/3 494/3/3 503/3/3
f 505/3/3 496/3/3 495/3/3
f 505/3/3 497/3/3 496/3/3
f 506/3/3 497/3/3 505/3/3
f 507/3/3 499/3/3 498/3/3
f 508/3/3 499/3/3 507/3/3
f 509/3/3 489/3/3 500/3/3
f 510/3/3 489/3/3 509/3/3
f 519/3/3 512/3/3 511/3/3
f 520/3/3 512/3/3 519/3/3
f 523/3/3 514/3/3 513/3/3
f 524/3/3 514/3/3 523/3/3
f 525/3/3 516/3/3 515/3/3
f 526/3/3 516/3/3 525/3/3
f 527/3/3 518/3/3 517/3/3
f 528/3/3 518/3/3 527/3/3
f 530/3/3 521/3/3 520/3/3
f 531/3/3 521/3/3 530/3/3
f 533/3/3 523/3/3 522/3/3
f 534/3/3 523/3/3 533/3/3
f 536/3/3 529/3/3 528/3/3
f 537/3/3 529/3/3 536/3/3
f 538/3/3 529/3/3 537/3/3
f 539/3/3 529/3/3 538/3/3
f 543/3/3 535/3/3 534/3/3
f 543/3/3 534/3/3 533/3/3
f 543/3/3 533/3/3 532/3/3
f 544/3/3 535/3/3 543/3/3
f 545/3/3 535/3/3 544/3/3
f 546/3/3 535/3/3 545/3/3
f 551/3/3 540/3/3 539/3/3
f 551/3/3 539/3/3 538/3/3
f 552/3/3 540/3/3 551/3/3
f 553/3/3 542/3/3 541/3/3
f 554/3/3 542/3/3 553/3/3
f 556/3/3 548/3/3 547/3/3
f 556/3/3 547/3/3 546/3/3
f 557/3/3 548/3/3 556/3/3
f 560/3/3 550/3/3 549/3/3
f 560/3/3 551/3/3 550/3/3
f 561/3/3 551/3/3 560/3/3
f 563/3/3 555/3/3 554/3/3
f 564/3/3 555/3/3 563/3/3
f 568/3/3 559/3/3 558/3/3
f 569/3/3 559/3/3 568/3/3
f 570/3/3 562/3/3 561/3/3
f 571/3/3 562/3/3 570/3/3
f 572/3/3 565/3/3 564/3/3
f 573/3/3 565/3/3 572/3/3
f 574/3/3 567/3/3 566/3/3
f 575/3/3 567/3/3 574/3/3
f 580/3/3 577/3/3 576/3/3
f 581/3/3 577/3/3 580/3/3
f 582/3/3 579/3/3 578/3/3
f 583/3/3 579/3/3 582/3/3
f 590/3/3 585/3/3 584/3/3
f 591/3/3 585/3/3 590/3/3
f 592/3/3 587/3/3 586/3/3
f 593/3/3 587/3/3 592/3/3
f 594/3/3 589/3/3 588/3/3
f 595/3/3 589/3/3 594/3/3
f 596/3/3 589/3/3 595/3/3
f 597/3/3 594/3/3 593/3/3
f 597/3/3 595/3/3 594/3/3
f 598/3/3 595/3/3 597/3/3
f 603/3/3 600/3/3 599/3/3
f 604/3/3 600/3/3 603/3/3
f 605/3/3 602/3/3 601/3/3
f 606/3/3 602/3/3 605/3/3
f 611/3/3 608/3/3 607/3/3
f 612/3/3 608/3/3 611/3/3
f 613/3/3 610/3/3 609/3/3
f 614/3/3 610/3/3 613/3/3
f 619/3/3 616/3/3 615/3/3
f 620/3/3 616/3/3 619/3/3
f 621/3/3 618/3/3 617/3/3
f 622/3/3 618/3/3 621/3/3
f 631/3/3 624/3/3 623/3/3
f 632/3/3 624/3/3 631/3/3
f 633/3/3 626/3/3 625/3/3
f 634/3/3 626/3/3 633/3/3
f 635/3/3 628/3/3 627/3/3
f 636/3/3 628/3/3 635/3/3
f 637/3/3 630/3/3 629/3/3
f 638/3/3 630/3/3 637/3/3
f 643/3/3 640/3/3 639/3/3
f 644/3/3 640/3/3 643/3/3
f 645/3/3 642/3/3 641/3/3
f 646/3/3 642/3/3 645/3/3
f 649/3/3 648/3/3 647/3/3
f 650/3/3 648/3/3 649/3/3
f 657/3/3 652/3/3 651/3/3
f 658/3/3 652/3/3 657/3/3
f 659/3/3 654/3/3 653/3/3
f 660/3/3 654/3/3 659/3/3
f 661/3/3 656/3/3 655/3/3
f 662/3/3 656/3/3 661/3/3
f 665/3/3 664/3/3 663/3/3
f 666/3/3 664/3/3 665/3/3
f 673/3/3 668/3/3 667/3/3
f 674/3/3 668/3/3 673/3/3
f 675/3/3 670/3/3 669/3/3
f 676/3/3 670/3/3 675/3/3
f 677/3/3 672/3/3 671/3/3
f 678/3/3 672/3/3 677/3/3
f 679/3/4 680/3/4 683/3/4
f 683/3/4 680/3/4 684/3/4
f 681/3/4 682/3/4 685/3/4
f 685/3/4 682/3/4 686/3/4
f 687/3/4 688/3/4 689/3/4
f 689/3/4 688/3/4 690/3/4
f 691/2/4 692/2/4 693/2/4
f 693/2/4 692/2/4 694/2/4
f 695/3/4 696/3/4 703/3/4
f 703/3/4 696/3/4 704/3/4
f 697/3/4 698/3/4 705/3/4
f 705/3/4 698/3/4 706/3/4
f 699/3/4 700/3/4 707/3/4
f 707/3/4 700/3/4 708/3/4
f 701/3/4 702/3/4 709/3/4
f 709/3/4 702/3/4 710/3/4
f 711/3/4 712/3/4 715/3/4
f 715/3/4 712/3/4 716/3/4
f 713/3/4 714/3/4 717/3/4
f 717/3/4 714/3/4 718/3/4
f 719/3/4 720/3/4 721/3/4
f 721/3/4 720/3/4 722/3/4
f 723/3/4 724/3/4 727/3/4
f 727/3/4 724/3/4 728/3/4
f 725/3/4 726/3/4 729/3/4
f 729/3/4 726/3/4 730/3/4
f 731/3/4 732/3/4 735/3/4
f 735/3/4 732/3/4 736/3/4
f 733/3/4 734/3/4 737/3/4
f 737/3/4 734/3/4 738/3/4
f 739/3/4 740/3/4 747/3/4
f 747/3/4 740/3/4 748/3/4
f 741/3/4 742/3/4 749/3/4
f 749/3/4 742/3/4 750/3/4
f 743/3/4 744/3/4 751/3/4
f 751/3/4 744/3/4 752/3/4
f 745/3/4 746/3/4 753/3/4
f 753/3/4 746/3/4 754/3/4
f 755/3/4 756/3/4 759/3/4
f 759/3/4 756/3/4 760/3/4
f 757/3/4 758/3/4 763/3/4
f 763/3/4 758/3/4 764/3/4
f 761/3/4 762/3/4 767/3/4
f 767/3/4 762/3/4 768/3/4
f 765/3/4 766/3/4 769/3/4
f 769/3/4 766/3/4 770/3/4
f 771/3/4 772/3/4 773/3/4
f 773/3/4 772/3/4 774/3/4
f 775/3/4 776/3/4 785/3/4
f 785/3/4 776/3/4 786/3/4
f 777/3/4 778/3/4 787/3/4
f 787/3/4 778/3/4 788/3/4
f 779/3/4 780/3/4 789/3/4
f 789/3/4 780/3/4 790/3/4
f 781/3/4 782/3/4 791/3/4
f 791/3/4 782/3/4 792/3/4
f 783/3/4 784/3/4 793/3/4
f 793/3/4 784/3/4 794/3/4
f 795/3/4 796/3/4 804/3/4
f 804/3/4 796/3/4 805/3/4
f 797/3/4 798/3/4 807/3/4
f 807/3/4 798/3/4 808/3/4
f 799/3/4 800/3/4 810/3/4
f 810/3/4 800/3/4 811/3/4
f 803/3/4 804/3/4 812/3/4
f 812/3/4 804/3/4 813/3/4
f 805/3/4 806/3/4 814/3/4
f 814/3/4 806/3/4 815/3/4
f 815/3/4 806/3/4 816/3/4
f 809/3/4 810/3/4 817/3/4
f 817/3/4 810/3/4 818/3/4
f 801/3/4 802/3/4 819/3/4
f 814/3/4 815/3/4 820/3/4
f 820/3/4 815/3/4 821/3/4
f 816/3/4 817/3/4 823/3/4
f 823/3/4 817/3/4 824/3/4
f 818/3/4 819/3/4 825/3/4
f 819/3/4 802/3/4 826/3/4
f 825/3/4 819/3/4 826/3/4
f 826/3/4 802/3/4 827/3/4
f 827/3/4 828/3/4 830/3/4
f 830/3/4 828/3/4 831/3/4
f 831/3/4 828/3/4 832/3/4
f 821/3/4 822/3/4 833/3/4
f 833/3/4 822/3/4 834/3/4
f 824/3/4 825/3/4 836/3/4
f 836/3/4 825/3/4 837/3/4
f 829/3/4 830/3/4 838/3/4
f 838/3/4 830/3/4 839/3/4
f 834/3/4 835/3/4 842/3/4
f 842/3/4 835/3/4 843/3/4
f 840/3/4 841/3/4 844/3/4
f 844/3/4 841/3/4 845/3/4
f 846/3/4 847/3/4 856/3/4
f 856/3/4 847/3/4 857/3/4
f 848/3/4 849/3/4 858/3/4
f 858/3/4 849/3/4 859/3/4
f 859/3/4 849/3/4 860/3/4
f 850/3/4 851/3/4 861/3/4
f 861/3/4 851/3/4 862/3/4
f 862/3/4 851/3/4 863/3/4
f 852/3/4 853/3/4 864/3/4
f 854/3/4 855/3/4 865/3/4
f 865/3/4 855/3/4 866/3/4
f 859/3/4 860/3/4 870/3/4
f 860/3/4 861/3/4 870/3/4
f 861/3/4 862/3/4 870/3/4
f 870/3/4 862/3/4 871/3/4
f 863/3/4 864/3/4 872/3/4
f 864/3/4 853/3/4 873/3/4
f 872/3/4 864/3/4 873/3/4
f 854/3/4 865/3/4 874/3/4
f 867/3/4 868/3/4 876/3/4
f 869/3/4 870/3/4 877/3/4
f 877/3/4 870/3/4 878/3/4
f 878/3/4 870/3/4 879/3/4
f 874/3/4 875/3/4 883/3/4
f 854/3/4 874/3/4 883/3/4
f 883/3/4 875/3/4 884/3/4
f 876/3/4 877/3/4 887/3/4
f 879/3/4 880/3/4 888/3/4
f 878/3/4 879/3/4 888/3/4
f 888/3/4 880/3/4 889/3/4
f 889/3/4 880/3/4 890/3/4
f 890/3/4 880/3/4 891/3/4
f 881/3/4 882/3/4 892/3/4
f 885/3/4 886/3/4 893/3/4
f 893/3/4 886/3/4 894/3/4
f 894/3/4 886/3/4 895/3/4
f 895/3/4 886/3/4 896/3/4
f 876/3/4 887/3/4 897/3/4
f 867/3/4 876/3/4 897/3/4
f 887/3/4 888/3/4 897/3/4
f 897/3/4 888/3/4 898/3/4
f 889/3/4 890/3/4 899/3/4
f 899/3/4 890/3/4 900/3/4
f 891/3/4 892/3/4 901/3/4
f 892/3/4 882/3/4 902/3/4
f 901/3/4 892/3/4 902/3/4
f 894/3/4 895/3/4 903/3/4
f 903/3/4 895/3/4 904/3/4
f 909/3/5 906/3/5 905/3/5
f 910/3/5 908/3/5 907/3/5
f 911/3/5 908/3/5 910/3/5
f 913/3/5 909/3/5 905/3/5
f 913/3/5 912/3/5 911/3/5
f 913/3/5 911/3/5 910/3/5
f 913/3/5 910/3/5 909/3/5
f 914/3/5 912/3/5 913/3/5
f 915/3/5 913/3/5 905/3/5
f 916/3/5 913/3/5 915/3/5
f 917/3/5 912/3/5 914/3/5
f 918/3/5 912/3/5 917/3/5
f 921/3/5 920/3/5 919/3/5
f 922/3/5 920/3/5 921/3/5
f 925/3/5 924/3/5 923/3/5
f 926/3/5 924/3/5 925/3/5
f 931/3/5 928/3/5 927/3/5
f 932/3/5 928/3/5 931/3/5
f 934/3/5 930/3/5 929/3/5
f 935/3/5 930/3/5 934/3/5
f 936/3/5 934/3/5 933/3/5
f 937/3/5 934/3/5 936/3/5
f 940/3/5 939/3/5 938/3/5
f 941/3/5 939/3/5 940/3/5
f 945/3/5 943/3/5 942/3/5
f 946/3/5 943/3/5 945/3/5
f 947/3/5 945/3/5 944/3/5
f 948/3/5 945/3/5 947/3/5
f 953/3/5 950/3/5 949/3/5
f 954/3/5 950/3/5 953/3/5
f 955/3/5 952/3/5 951/3/5
f 956/3/5 952/3/5 955/3/5
f 961/3/5 958/3/5 957/3/5
f 962/3/5 958/3/5 961/3/5
f 963/3/5 960/3/5 959/3/5
f 964/3/5 960/3/5 963/3/5
f 967/3/5 966/3/5 965/3/5
f 968/3/5 966/3/5 967/3/5
f 971/3/5 970/3/5 969/3/5
f 972/3/5 970/3/5 971/3/5
f 975/3/5 974/3/5 973/3/5
f 976/3/5 974/3/5 975/3/5
f 979/3/5 978/3/5 977/3/5
f 980/3/5 978/3/5 979/3/5
f 983/3/5 982/3/5 981/3/5
f 984/3/5 982/3/5 983/3/5
f 987/3/5 986/3/5 985/3/5
f 988/3/5 986/3/5 987/3/5
f 993/3/5 990/3/5 989/3/5
f 994/3/5 990/3/5 993/3/5
f 995/3/5 992/3/5 991/3/5
f 996/3/5 992/3/5 995/3/5
f 999/3/5 998/3/5 997/3/5
f 1000/3/5 998/3/5 999/3/5
f 1003/3/5 1002/3/5 1001/3/5
f 1004/3/5 1002/3/5 1003/3/5
f 1007/3/5 1006/3/5 1005/3/5
f 1008/3/5 1006/3/5 1007/3/5
f 1012/3/5 1010/3/5 1009/3/5
f 1013/3/5 1010/3/5 1012/3/5
f 1015/3/5 1012/3/5 1011/3/5
f 1016/3/5 1012/3/5 1015/3/5
f 1017/3/5 1014/3/5 1013/3/5
f 1018/3/5 1014/3/5 1017/3/5
f 1023/3/5 1020/3/5 1019/3/5
f 1024/3/5 1020/3/5 1023/3/5
f 1025/2/5 1022/2/5 1021/2/5
f 1026/2/5 1022/2/5 1025/2/5
f 1029/3/5 1028/3/5 1027/3/5
f 1030/3/5 1028/3/5 1029/3/5
f 1033/3/5 1032/3/5 1031/3/5
f 1034/3/5 1032/3/5 1033/3/5
f 1039/3/5 1036/3/5 1035/3/5
f 1040/3/5 1036/3/5 1039/3/5
f 1041/3/5 1038/3/5 1037/3/5
f 1042/3/5 1038/3/5 1041/3/5
f 1045/3/5 1044/3/5 1043/3/5
f 1046/3/5 1044/3/5 1045/3/5
f 1049/2/5 1048/2/5 1047/2/5
f 1050/2/5 1048/2/5 1049/2/5
f 1053/3/5 1052/3/5 1051/3/5
f 1054/3/5 1052/3/5 1053/3/5
f 1057/3/5 1056/3/5 1055/3/5
f 1058/3/5 1056/3/5 1057/3/5
f 1061/3/5 1060/3/5 1059/3/5
f 1062/3/5 1060/3/5 1061/3/5
f 1065/3/5 1064/3/5 1063/3/5
f 1066/3/5 1064/3/5 1065/3/5
f 1069/3/5 1068/3/5 1067/3/5
f 1070/3/5 1068/3/5 1069/3/5
f 1073/3/5 1072/3/5 1071/3/5
f 1074/3/5 1072/3/5 1073/3/5
f 1077/3/5 1076/3/5 1075/3/5
f 1078/3/5 1076/3/5 1077/3/5
f 1083/3/5 1080/3/5 1079/3/5
f 1084/3/5 1080/3/5 1083/3/5
f 1086/3/5 1082/3/5 1081/3/5
f 1087/3/5 1082/3/5 1086/3/5
f 1089/3/5 1086/3/5 1085/3/5
f 1090/3/5 1086/3/5 1089/3/5
f 1091/3/5 1088/3/5 1087/3/5
f 1092/3/5 1088/3/5 1091/3/5
f 1097/3/5 1094/3/5 1093/3/5
f 1098/3/5 1094/3/5 1097/3/5
f 1099/2/5 1096/2/5 1095/2/5
f 1100/2/5 1096/2/5 1099/2/5
f 1103/3/5 1102/3/5 1101/3/5
f 1104/3/5 1102/3/5 1103/3/5
f 1107/3/5 1106/3/5 1105/3/5
f 1108/3/5 1106/3/5 1107/3/5
f 1111/3/5 1110/3/5 1109/3/5
f 1112/3/5 1110/3/5 1111/3/5
f 1115/3/5 1114/3/5 1113/3/5
f 1116/3/5 1114/3/5 1115/3/5
f 1117/3/6 1118/3/6 1119/3/6
f 1119/3/6 1118/3/6 1120/3/6
f 1121/3/6 1122/3/6 1123/3/6
f 1123/3/6 1122/3/6 1124/3/6
f 1125/3/6 1126/3/6 1128/3/6
f 1128/3/6 1126/3/6 1129/3/6
f 1127/3/6 1128/3/6 1130/3/6
f 1130/3/6 1128/3/6 1131/3/6
f 1132/3/6 1133/3/6 1134/3/6
f 1134/3/6 1133/3/6 1135/3/6
f 1136/3/6 1137/3/6 1138/3/6
f 1138/3/6 1137/3/6 1139/3/6
f 1140/3/6 1141/3/6 1144/3/6
f 1144/3/6 1141/3/6 1145/3/6
f 1142/3/6 1143/3/6 1146/3/6
f 1146/3/6 1143/3/6 1147/3/6
f 1148/3/6 1149/3/6 1150/3/6
f 1150/3/6 1149/3/6 1151/3/6
f 1152/3/6 1153/3/6 1154/3/6
f 1154/3/6 1153/3/6 1155/3/6
f 1156/3/6 1157/3/6 1160/3/6
f 1160/3/6 1157/3/6 1161/3/6
f 1158/3/6 1159/3/6 1162/3/6
f 1162/3/6 1159/3/6 1163/3/6
f 1164/3/6 1165/3/6 1166/3/6
f 1166/3/6 1165/3/6 1167/3/6
f 1168/3/6 1169/3/6 1170/3/6
f 1170/3/6 1169/3/6 1171/3/6
f 1172/3/6 1173/3/6 1174/3/6
f 1174/3/6 1173/3/6 1175/3/6
f 1176/2/6 1177/2/6 1180/2/6
f 1180/2/6 1177/2/6 1181/2/6
f 1178/3/6 1179/3/6 1182/3/6
f 1182/3/6 1179/3/6 1183/3/6
f 1184/3/6 1185/3/6 1186/3/6
f 1186/3/6 1185/3/6 1187/3/6
f 1188/3/6 1189/3/6 1190/3/6
f 1190/3/6 1189/3/6 1191/3/6
f 1192/3/6 1193/3/6 1194/3/6
f 1194/3/6 1193/3/6 1195/3/6
f 1196/3/6 1197/3/6 1198/3/6
f 1198/3/6 1197/3/6 1199/3/6
f 1200/3/6 1201/3/6 1202/3/6
f 1202/3/6 1201/3/6 1203/3/6
f 1204/3/6 1205/3/6 1206/3/6
f 1206/3/6 1205/3/6 1207/3/6
f 1208/3/6 1209/3/6 1210/3/6
f 1210/3/6 1209/3/6 1211/3/6
f 1212/3/6 1213/3/6 1215/3/6
f 1215/3/6 1213/3/6 1216/3/6
f 1214/3/6 1215/3/6 1218/3/6
f 1218/3/6 1215/3/6 1219/3/6
f 1216/3/6 1217/3/6 1220/3/6
f 1220/3/6 1217/3/6 1221/3/6
f 1222/3/6 1223/3/6 1224/3/6
f 1224/3/6 1223/3/6 1225/3/6
f 1226/3/6 1227/3/6 1228/3/6
f 1228/3/6 1227/3/6 1229/3/6
f 1230/3/6 1231/3/6 1232/3/6
f 1232/3/6 1231/3/6 1233/3/6
f 1234/3/6 1235/3/6 1236/3/6
f 1236/3/6 1235/3/6 1237/3/6
f 1238/3/6 1239/3/6 1241/3/6
f 1241/3/6 1239/3/6 1242/3/6
f 1240/3/6 1241/3/6 1243/3/6
f 1243/3/6 1241/3/6 1244/3/6
f 1245/3/6 1246/3/6 1247/3/6
f 1247/3/6 1246/3/6 1248/3/6
f 1249/2/6 1250/2/6 1251/2/6
f 1251/2/6 1250/2/6 1252/2/6
f 1253/3/6 1254/3/6 1255/3/6
f 1255/3/6 1254/3/6 1256/3/6
f 1257/3/6 1258/3/6 1261/3/6
f 1261/3/6 1258/3/6 1262/3/6
f 1259/3/6 1260/3/6 1263/3/6
f 1263/3/6 1260/3/6 1264/3/6
f 1265/3/6 1266/3/6 1267/3/6
f 1267/3/6 1266/3/6 1268/3/6
f 1269/3/6 1270/3/6 1271/3/6
f 1271/3/6 1270/3/6 1272/3/6
f 1273/3/6 1274/3/6 1275/3/6
f 1275/3/6 1274/3/6 1276/3/6
f 1277/3/6 1278/3/6 1279/3/6
f 1279/3/6 1278/3/6 1280/3/6
f 1281/3/6 1282/3/6 1285/3/6
f 1285/3/6 1282/3/6 1286/3/6
f 1283/3/6 1284/3/6 1289/3/6
f 1289/3/6 1284/3/6 1290/3/6
f 1287/3/6 1288/3/6 1293/3/6
f 1293/3/6 1288/3/6 1294/3/6
f 1291/3/6 1292/3/6 1295/3/6
f 1289/3/6 1290/3/6 1295/3/6
f 1290/3/6 1291/3/6 1295/3/6
f 1295/3/6 1292/3/6 1296/3/6
f 1297/2/6 1298/2/6 1301/2/6
f 1301/2/6 1298/2/6 1302/2/6
f 1299/3/6 1300/3/6 1303/3/6
f 1303/3/6 1300/3/6 1304/3/6
f 1305/3/6 1306/3/6 1307/3/6
f 1307/3/6 1306/3/6 1308/3/6
f 1309/3/6 1310/3/6 1311/3/6
f 1311/3/6 1310/3/6 1312/3/6
f 1313/3/6 1314/3/6 1315/3/6
f 1315/3/6 1314/3/6 1316/3/6
f 1317/3/6 1318/3/6 1319/3/6
f 1319/3/6 1318/3/6 1320/3/6
f 1320/3/6 1321/3/6 1324/3/6
f 1324/3/6 1321/3/6 1325/3/6
f 1322/3/6 1323/3/6 1326/3/6
f 1325/3/6 1326/3/6 1327/3/6
f 1326/3/6 1323/3/6 1328/3/6
f 1327/3/6 1326/3/6 1328/3/6
f 1328/3/6 1323/3/6 1329/3/6
f 1329/3/6 1330/3/6 1333/3/6
f 1328/3/6 1329/3/6 1333/3/6
f 1333/3/6 1330/3/6 1334/3/6
f 1334/3/6 1330/3/6 1335/3/6
f 1335/3/6 1336/3/6 1337/3/6
f 1334/3/6 1335/3/6 1337/3/6
f 1337/3/6 1336/3/6 1338/3/6
f 1338/3/6 1336/3/6 1339/3/6
f 1331/3/6 1332/3/6 1340/3/6
f 1340/3/6 1332/3/6 1341/3/6
f 1337/3/6 1338/3/6 1342/3/6
f 1342/3/6 1338/3/6 1343/3/6
f 1344/3/6 1345/3/6 1349/3/6
f 1349/3/6 1345/3/6 1350/3/6
f 1348/3/6 1349/3/6 1351/3/6
f 1350/3/6 1345/3/6 1352/3/6
f 1352/3/6 1345/3/6 1353/3/6
f 1348/3/6 1351/3/6 1354/3/6
f 1351/3/6 1352/3/6 1354/3/6
f 1354/3/6 1352/3/6 1355/3/6
f 1355/3/6 1352/3/6 1356/3/6
f 1346/3/6 1347/3/6 1358/3/6
f 1358/3/6 1347/3/6 1359/3/6
f 1356/3/6 1357/3/6 1361/3/6
f 1355/3/6 1356/3/6 1361/3/6
f 1361/3/6 1357/3/6 1362/3/6
f 1362/3/6 1357/3/6 1363/3/6
f 1359/3/6 1347/3/6 1365/3/6
f 1365/3/6 1347/3/6 1366/3/6
f 1363/3/6 1364/3/6 1367/3/6
f 1362/3/6 1363/3/6 1367/3/6
f 1367/3/6 1364/3/6 1368/3/6
f 1360/3/6 1361/3/6 1369/3/6
f 1369/3/6 1361/3/6 1370/3/6
f 1362/3/6 1367/3/6 1371/3/6
f 1371/3/6 1367/3/6 1372/3/6
