# MagicaVoxel @ Ephtracy

# group
o 

# material
mtllib Straw_V2.mtl
usemtl palette

# normals
vn -1 0 0
vn 1 0 0
vn 0 0 1
vn 0 0 -1
vn 0 -1 0
vn 0 1 0

# texcoords
vt 0.919922 0.5
vt 0.935547 0.5
vt 0.986328 0.5
vt 0.994141 0.5

# verts
v -0.5 -1.5 0.2
v -0.5 -1.5 -0.4
v -0.5 3.7 1.4
v -0.5 3.7 0.2
v -0.5 4 1.4
v -0.5 4 -0.4
v 0.1 -1.5 0.2
v 0.1 -1.5 -0.4
v 0.1 3.7 1.4
v 0.1 3.7 0.2
v 0.1 4 1.4
v 0.1 4 -0.4
v -0.5 3.7 1.4
v -0.5 4 1.4
v -0.4 3.8 1.4
v -0.4 3.9 1.4
v 0 3.8 1.4
v 0 3.9 1.4
v 0.1 3.7 1.4
v 0.1 4 1.4
v -0.5 -1.5 0.2
v -0.5 3.7 0.2
v -0.3 0 0.2
v -0.3 1.2 0.2
v -0.3 2 0.2
v -0.3 3.2 0.2
v -0.1 0 0.2
v -0.1 1.2 0.2
v -0.1 2 0.2
v -0.1 3.2 0.2
v 0.1 -1.5 0.2
v 0.1 3.7 0.2
v -0.5 -1.5 -0.4
v -0.5 4 -0.4
v 0.1 -1.5 -0.4
v 0.1 4 -0.4
v -0.5 -1.5 0.2
v 0.1 -1.5 0.2
v -0.5 -1.5 -0.4
v 0.1 -1.5 -0.4
v -0.5 3.7 1.4
v 0.1 3.7 1.4
v -0.5 3.7 0.2
v 0.1 3.7 0.2
v -0.5 4 1.4
v 0.1 4 1.4
v -0.5 4 -0.4
v 0.1 4 -0.4

# faces
f 4/3/1 2/3/1 1/3/1
f 5/3/1 4/3/1 3/3/1
f 6/3/1 2/3/1 4/3/1
f 6/3/1 4/3/1 5/3/1
f 7/3/2 8/3/2 10/3/2
f 9/3/2 10/3/2 11/3/2
f 10/3/2 8/3/2 12/3/2
f 11/3/2 10/3/2 12/3/2
f 15/3/3 14/3/3 13/3/3
f 16/3/3 14/3/3 15/3/3
f 17/3/3 15/3/3 13/3/3
f 17/4/3 16/4/3 15/4/3
f 18/3/3 14/3/3 16/3/3
f 18/4/3 16/4/3 17/4/3
f 19/3/3 17/3/3 13/3/3
f 19/3/3 18/3/3 17/3/3
f 20/3/3 14/3/3 18/3/3
f 20/3/3 18/3/3 19/3/3
f 23/3/3 22/3/3 21/3/3
f 24/3/3 22/3/3 23/3/3
f 25/3/3 22/3/3 24/3/3
f 26/3/3 22/3/3 25/3/3
f 27/3/3 23/3/3 21/3/3
f 27/2/3 24/2/3 23/2/3
f 28/1/3 25/1/3 24/1/3
f 28/2/3 24/2/3 27/2/3
f 29/2/3 26/2/3 25/2/3
f 29/1/3 25/1/3 28/1/3
f 30/3/3 22/3/3 26/3/3
f 30/2/3 26/2/3 29/2/3
f 31/3/3 29/3/3 28/3/3
f 31/3/3 28/3/3 27/3/3
f 31/3/3 30/3/3 29/3/3
f 31/3/3 27/3/3 21/3/3
f 32/3/3 22/3/3 30/3/3
f 32/3/3 30/3/3 31/3/3
f 33/3/4 34/3/4 35/3/4
f 35/3/4 34/3/4 36/3/4
f 39/3/5 38/3/5 37/3/5
f 40/3/5 38/3/5 39/3/5
f 43/3/5 42/3/5 41/3/5
f 44/3/5 42/3/5 43/3/5
f 45/3/6 46/3/6 47/3/6
f 47/3/6 46/3/6 48/3/6
